<svg width="45" height="45" viewBox="0 0 45 45" fill="none" xmlns="http://www.w3.org/2000/svg">
<g clip-path="url(#clip0_299_28)">
<path d="M23.9845 32.1412C23.8449 32.1412 23.7038 32.1168 23.568 32.0649L19.1406 30.3796L14.7133 32.0649C14.2021 32.2617 13.6169 32.0718 13.3156 31.6094L10.7315 27.6482L6.16302 26.4138C5.63125 26.2696 5.27115 25.7744 5.29861 25.2244L5.53436 20.4972L2.56347 16.8061C2.21862 16.3766 2.21862 15.7647 2.56424 15.3359L5.53436 11.6524L5.29861 6.9184C5.27114 6.36832 5.63125 5.87317 6.16303 5.72898L10.7315 4.49378L13.3156 0.5326C13.6162 0.0702567 14.2006 -0.119712 14.7133 0.0771241L19.1406 1.76246L23.568 0.0771241C24.1692 -0.150993 24.8489 0.151132 25.0801 0.75614C25.3098 1.36039 25.0061 2.03787 24.4011 2.26752L19.5572 4.11155C19.2886 4.21378 18.9926 4.21378 18.7241 4.11155L14.7621 2.60398L12.4496 6.14859C12.2925 6.38968 12.0522 6.5644 11.7744 6.63993L7.68661 7.74543L7.89718 11.982C7.91168 12.2689 7.81936 12.5519 7.63931 12.7755L4.98123 16.0721L7.64007 19.3757C7.82013 19.5992 7.91168 19.8815 7.89718 20.1684L7.68661 24.3974L11.7744 25.5021C12.0522 25.5776 12.2925 25.7523 12.4496 25.9934L14.7621 29.538L18.7241 28.0305C18.9926 27.9282 19.2886 27.9282 19.5572 28.0305L23.5191 29.538L25.8316 25.9934C25.9888 25.7523 26.2291 25.5776 26.5068 25.5021L30.5946 24.3974L30.4237 20.9733C30.3917 20.3263 30.8891 19.7762 31.5353 19.7442C32.1808 19.7289 32.7324 20.2096 32.7644 20.8558L32.9826 25.2236C33.0101 25.7745 32.65 26.2696 32.1182 26.4138L27.5497 27.6482L24.9657 31.6094C24.7444 31.9489 24.3713 32.1412 23.9845 32.1412Z" fill="black"/>
<path d="M19.1405 25.3289C14.0357 25.3289 9.88306 21.1762 9.88306 16.0714C9.88306 10.9666 14.0357 6.81311 19.1405 6.81311C19.7875 6.81311 20.3124 7.33801 20.3124 7.98498C20.3124 8.63195 19.7875 9.15686 19.1405 9.15686C15.3281 9.15686 12.2268 12.259 12.2268 16.0714C12.2268 19.8838 15.3281 22.9851 19.1405 22.9851C22.1328 22.9851 24.7718 21.0763 25.7071 18.2358C25.9093 17.6201 26.5731 17.2875 27.1865 17.4889C27.8014 17.6911 28.1356 18.3541 27.9334 18.9683C26.6806 22.773 23.1467 25.3289 19.1405 25.3289Z" fill="black"/>
<path d="M28.6485 44.5321C28.6248 44.5321 28.6012 44.5313 28.5775 44.5298C28.1693 44.5054 27.8039 44.2696 27.6124 43.9088L20.5735 30.6122C20.2714 30.04 20.4896 29.3305 21.061 29.0276C21.6325 28.7278 22.342 28.9437 22.6457 29.5151L28.785 41.1133L30.7183 38.3385C30.9449 38.012 31.3233 37.822 31.7201 37.8373L35.1258 37.9548L28.9651 26.323C28.6622 25.7508 28.8796 25.042 29.4518 24.7391C30.0225 24.4362 30.7336 24.6545 31.0357 25.2259L38.1448 38.6475C38.3409 39.0176 38.3248 39.4631 38.1028 39.8179C37.8808 40.1719 37.4909 40.3886 37.069 40.3672L32.277 40.2016L29.6098 44.0301C29.39 44.3459 29.0307 44.5321 28.6485 44.5321Z" fill="black"/>
<path d="M9.63286 44.5321C9.25063 44.5321 8.89129 44.3459 8.67156 44.0301L6.00432 40.2016L1.2123 40.3672C0.797262 40.387 0.399769 40.1719 0.178519 39.8179C-0.0434963 39.4631 -0.0595197 39.0176 0.136558 38.6475L7.24563 25.2259C7.54852 24.6544 8.25957 24.4363 8.82949 24.7391C9.40169 25.042 9.61913 25.7508 9.31625 26.323L3.15551 37.9548L6.56128 37.8373C6.95954 37.8212 7.33643 38.012 7.56302 38.3385L9.49631 41.1133L15.6357 29.5151C15.9393 28.9437 16.6512 28.7278 17.2203 29.0276C17.7918 29.3305 18.01 30.04 17.7078 30.6122L10.6689 43.9088C10.4774 44.2696 10.112 44.5054 9.70382 44.5298C9.68018 44.5313 9.65651 44.5321 9.63286 44.5321Z" fill="black"/>
<path d="M33.4022 22.2583C27.2659 22.2583 22.274 17.2664 22.274 11.1301C22.274 4.99378 27.2659 0.00109863 33.4022 0.00109863C39.5386 0.00109863 44.5312 4.99377 44.5312 11.1301C44.5312 17.2664 39.5386 22.2583 33.4022 22.2583ZM33.4022 2.34485C28.5583 2.34485 24.6178 6.28619 24.6178 11.1301C24.6178 15.974 28.5583 19.9145 33.4022 19.9145C38.2461 19.9145 42.1875 15.974 42.1875 11.1301C42.1875 6.2862 38.2461 2.34485 33.4022 2.34485Z" fill="black"/>
<path d="M31.8374 15.3634C31.8138 15.3634 31.7894 15.3626 31.7657 15.3611C31.4277 15.3405 31.1149 15.1742 30.9082 14.9056L28.0014 11.126C27.6069 10.6133 27.7031 9.87783 28.2165 9.48263C28.73 9.08972 29.4647 9.18432 29.8599 9.69778L31.9466 12.4116L37.0399 7.24569C37.4946 6.78412 38.2362 6.77954 38.697 7.23349C39.1578 7.6882 39.1632 8.42978 38.7092 8.89059L32.6721 15.0139C32.4509 15.2382 32.1503 15.3634 31.8374 15.3634Z" fill="black"/>
</g>
<defs>
<clipPath id="clip0_299_28">
<rect width="45" height="45" fill="white"/>
</clipPath>
</defs>
</svg>
