<svg width="48" height="48" viewBox="0 0 48 48" fill="none" xmlns="http://www.w3.org/2000/svg">
<path d="M40.3899 37.5629H7.61011C6.54463 37.5617 5.52315 37.1378 4.76977 36.3844C4.0164 35.6309 3.59267 34.6094 3.59155 33.5439V13.2995C3.59267 12.234 4.0164 11.2125 4.76977 10.459C5.52315 9.70557 6.54463 9.28174 7.61011 9.28052H40.3899C41.4554 9.28174 42.4769 9.70557 43.2302 10.459C43.9836 11.2125 44.4073 12.234 44.4085 13.2995V33.5439C44.4073 34.6094 43.9836 35.6309 43.2302 36.3844C42.4769 37.1378 41.4554 37.5617 40.3899 37.5629ZM7.61011 10.8165C6.95185 10.8172 6.32076 11.0791 5.85533 11.5446C5.3899 12.0101 5.12816 12.6412 5.12755 13.2995V33.5439C5.12816 34.2022 5.3899 34.8333 5.85533 35.2988C6.32076 35.7643 6.95185 36.0262 7.61011 36.0269H40.3899C41.0482 36.0262 41.6793 35.7643 42.1447 35.2988C42.6101 34.8333 42.8718 34.2022 42.8725 33.5439V13.2995C42.8718 12.6412 42.6101 12.0101 42.1447 11.5446C41.6793 11.0791 41.0482 10.8172 40.3899 10.8165H7.61011Z" fill="#C6C0D0"/>
<path d="M24 27.9414C23.8128 27.9415 23.632 27.8732 23.4916 27.7494L4.98279 11.4109L5.99924 10.2589L24 26.1504L42.0015 10.2609L43.018 11.4129L24.5092 27.7513C24.3684 27.8748 24.1873 27.9424 24 27.9414Z" fill="#C6C0D0"/>
<path d="M4.56519 35.1511L16.9992 20.9839L18.1543 21.9976L5.72026 36.1649L4.56519 35.1511Z" fill="#C6C0D0"/>
<path d="M29.8849 21.9827L31.04 20.9689L43.4743 35.1365L42.3192 36.1502L29.8849 21.9827Z" fill="#C6C0D0"/>
</svg>
