<svg width="47" height="33" viewBox="0 0 47 33" fill="none" xmlns="http://www.w3.org/2000/svg">
<path d="M46.2875 0.682031C46.2875 0.675 46.2875 0.66875 46.2855 0.661719C46.2836 0.654688 46.2828 0.637109 46.282 0.625C46.2777 0.570766 46.2668 0.517255 46.2496 0.465625C46.2473 0.458594 46.2496 0.451172 46.2453 0.444141C46.241 0.43711 46.2414 0.438281 46.2402 0.435156C46.218 0.378413 46.1881 0.324936 46.1516 0.276172C46.1434 0.265235 46.1348 0.255469 46.1258 0.244922C46.0902 0.201852 46.0496 0.163285 46.0047 0.130078C46 0.126563 45.9961 0.122266 45.9914 0.119141C45.9412 0.0860763 45.8868 0.0598068 45.8297 0.0410162C45.8164 0.0363287 45.8031 0.0324219 45.7906 0.0285156C45.7305 0.0104751 45.6682 0.000878011 45.6055 0H0.682031C0.619289 0.000878011 0.556974 0.0104751 0.496875 0.0285156C0.483203 0.0324219 0.470312 0.0363287 0.457812 0.0410162C0.400695 0.0598068 0.346316 0.0860763 0.296094 0.119141C0.291406 0.122266 0.2875 0.126563 0.282812 0.130078C0.237922 0.163285 0.197256 0.201852 0.161719 0.244922C0.153125 0.255469 0.144141 0.265235 0.135938 0.276172C0.0993611 0.324936 0.0695344 0.378413 0.0472656 0.435156C0.0472656 0.438281 0.0433593 0.441016 0.0421874 0.444141C0.0410155 0.447266 0.0402342 0.458594 0.0378905 0.465625C0.0207213 0.517255 0.00983563 0.570766 0.00546873 0.625C0.00546873 0.6375 0.00195298 0.649609 0.00195298 0.661719C0.00195298 0.673828 0 0.675 0 0.682031V31.7816C0 31.7906 0.00234374 31.7992 0.00273436 31.8082C0.00387403 31.8328 0.00635168 31.8573 0.0101563 31.8816C0.0132813 31.9016 0.0160156 31.9207 0.0207031 31.941C0.0267324 31.9647 0.0340346 31.988 0.042578 32.0109C0.0492186 32.0293 0.0554686 32.0477 0.0636717 32.0652C0.074504 32.0883 0.086633 32.1107 0.1 32.1324C0.109375 32.148 0.11875 32.1641 0.129297 32.1789C0.144442 32.1996 0.160744 32.2194 0.178125 32.2383C0.191016 32.2523 0.203906 32.2664 0.217187 32.2797C0.225391 32.2871 0.231641 32.2961 0.240234 32.3035C0.248828 32.3109 0.254297 32.3102 0.260547 32.3152C0.313876 32.3582 0.373405 32.3928 0.437109 32.418C0.450781 32.4234 0.464844 32.4266 0.478906 32.4309C0.540529 32.451 0.604727 32.4622 0.669531 32.4641C0.674219 32.4641 0.678515 32.4664 0.683203 32.4664H45.6043C45.609 32.4664 45.6133 32.4641 45.6176 32.4641C45.6825 32.4622 45.7468 32.451 45.8086 32.4309C45.8223 32.4266 45.8359 32.4234 45.8477 32.418C45.9115 32.3929 45.9712 32.3582 46.0246 32.3152C46.0309 32.3102 46.0387 32.3086 46.0449 32.3035C46.0512 32.2984 46.0598 32.2871 46.068 32.2797C46.082 32.2664 46.0949 32.2527 46.107 32.2383C46.1244 32.2194 46.1407 32.1996 46.1559 32.1789C46.1664 32.1641 46.1758 32.1484 46.1852 32.1324C46.1985 32.1107 46.2107 32.0883 46.2215 32.0652C46.2297 32.0477 46.2359 32.0293 46.2426 32.0109C46.2511 31.988 46.2584 31.9647 46.2645 31.941C46.2691 31.9215 46.2719 31.902 46.275 31.8816C46.2788 31.8573 46.2813 31.8328 46.2824 31.8082C46.2824 31.7992 46.2852 31.7906 46.2852 31.7816L46.2875 0.682031ZM16.0336 14.793L22.6969 20.5262C22.8209 20.6328 22.9792 20.6915 23.1428 20.6915C23.3064 20.6915 23.4646 20.6328 23.5887 20.5262L30.2523 14.793L44.1242 31.098H2.16211L16.0336 14.793ZM1.36562 29.9242V2.17227L14.9984 13.9012L1.36562 29.9242ZM31.2875 13.9012L44.9203 2.17227V29.9242L31.2875 13.9012ZM43.7605 1.36563L29.8914 13.2996C29.8891 13.3016 29.8859 13.3027 29.8836 13.3051C29.8813 13.3074 29.8789 13.3105 29.8762 13.3129L23.143 19.1062L16.4098 13.3129C16.407 13.3105 16.4051 13.3074 16.4023 13.3051L16.3945 13.2996L2.52461 1.36563H43.7605Z" fill="#C6C0D0"/>
</svg>
