<svg width="54" height="53" viewBox="0 0 54 53" fill="none" xmlns="http://www.w3.org/2000/svg">
<path d="M4.82828 27.8183L18.0808 34.5871C18.4727 34.783 19.3277 35.2639 19.8086 34.4802C20.2539 33.7499 19.5058 33.1621 19.1495 32.8949L3.7239 21.0852C2.60172 20.1946 2.35234 18.4668 3.20734 17.2911C4.06234 16.0621 5.84359 15.7058 7.05484 16.543L22.7298 27.7827C23.0148 27.9964 23.7986 28.5664 24.3686 27.9074C24.9386 27.2839 24.3152 26.5714 24.0658 26.3043L9.51297 10.9499C8.46203 9.79207 8.53328 7.86832 9.94046 6.568C11.0627 5.53488 13.0398 5.49925 14.1086 6.60363L28.412 21.4949C28.6258 21.7086 29.2848 22.3855 29.9617 21.8868C30.6564 21.3524 30.1577 20.5686 30.033 20.2658L21.1445 5.51707C20.5389 4.573 20.5211 2.63144 22.1598 1.65175C23.852 0.654255 25.473 1.65175 26.0964 2.70269L35.9823 18.5914C37.3895 20.9427 39.5983 22.9199 41.5577 23.8461C43.0717 24.5586 44.2473 23.6502 44.4433 22.0649C44.7461 19.6068 45.227 16.5608 46.082 13.9958C46.9727 11.3061 50.1077 9.97019 52.7795 11.3239L51.8711 14.9043C50.9627 18.538 50.8558 22.3499 51.4792 26.0549C52.0136 29.1543 52.548 33.1443 52.4767 36.6889C52.3877 42.0327 48.7895 44.3661 45.5655 47.2696C31.6539 59.8986 21.5364 42.7274 16.6023 40.2871L2.26328 32.3249C1.05203 31.6302 0.784841 30.0093 1.49734 28.8336C2.19203 27.6936 3.61703 27.1949 4.82828 27.8183Z" fill="#FFD869"/>
<path d="M48.6114 11.2527C49.0389 11.3418 49.4486 11.4664 49.8583 11.6624L48.9498 15.2427C48.0414 18.8764 47.9345 22.6883 48.558 26.3933C49.0923 29.4927 49.6267 33.4827 49.5555 37.0274C49.4664 42.3711 45.8683 44.7046 42.6442 47.608C40.008 49.9949 37.5142 51.313 35.163 51.8652C38.3336 51.9186 41.807 50.6896 45.5477 47.2874C48.7717 44.3839 52.352 42.0505 52.4589 36.7068C52.5302 33.1443 51.9958 29.1543 51.4614 26.0727C50.8202 22.3677 50.9448 18.5558 51.8533 14.9221L52.7617 11.3418C51.3902 10.6471 49.8761 10.6827 48.6114 11.2527Z" fill="#F2C34E"/>
<path d="M48.5758 24.6299C49.1101 27.7293 49.6445 31.7193 49.5733 35.2639C49.4842 40.6077 45.8861 42.9411 42.662 45.8446C37.1045 50.8855 32.1527 51.1705 27.8955 49.5496C32.7405 52.4886 38.6898 53.5396 45.5655 47.2874C48.7895 44.3839 52.3698 42.0505 52.4767 36.7068C52.548 33.1443 52.0136 29.1543 51.4792 26.0727C50.8558 22.3677 47.9345 20.9249 48.5758 24.6299Z" fill="#F2C34E"/>
<path d="M11.1873 6.92425L27.0405 23.2583C27.2542 23.4721 27.9133 24.1489 28.5902 23.6502C29.2848 23.1158 28.7861 22.3321 28.6614 22.0293L27.9667 20.8714L14.1086 6.62144C13.1289 5.60613 11.4189 5.55269 10.2789 6.31863C10.6173 6.46113 10.9202 6.65707 11.1873 6.92425Z" fill="#F2C34E"/>
<path d="M3.99109 16.9705L21.3761 29.4214C21.6967 29.653 22.5695 30.2764 23.193 29.5461C23.7452 28.9583 23.2998 28.2814 22.997 27.9252L7.21515 16.6143C6.16422 15.8839 4.66797 15.9908 3.63484 16.7746C3.75953 16.8458 3.88422 16.8993 3.99109 16.9705Z" fill="#F2C34E"/>
<path d="M23.1752 3.02332L33.0611 18.9121C34.4683 21.2633 36.677 23.2405 38.6364 24.1668C39.6873 24.6655 40.578 24.3449 41.0945 23.5789C39.2598 22.5814 37.3005 20.7646 35.9823 18.5914L26.0964 2.70269C25.473 1.65175 23.852 0.654255 22.1598 1.65175C22.053 1.70519 21.9817 1.77644 21.8927 1.84769C22.4448 2.1505 22.908 2.578 23.1752 3.02332Z" fill="#F2C34E"/>
<path d="M17.0833 36.2436C17.5286 36.4752 18.5439 37.0274 19.0961 36.1189C19.3098 35.7627 19.2564 35.4599 19.1317 35.1927L4.98859 27.9608C3.8664 27.3908 2.61953 27.6402 1.74672 28.4061L17.0833 36.2436Z" fill="#F2C34E"/>
<path d="M35.4123 52.7736C28.9998 52.7736 23.7808 47.8218 20.147 44.3839C18.5795 42.8877 17.208 41.6052 16.2105 41.1064L1.83578 33.1264C1.08765 32.6989 0.553278 32.0043 0.339528 31.1493C0.090153 30.223 0.250465 29.2255 0.731403 28.3883C1.67547 26.7852 3.59922 26.1974 5.22015 27.0168L18.4727 33.7855C18.6152 33.8568 18.9536 34.0171 19.0605 34.0171C19.007 33.9636 18.8645 33.8211 18.5973 33.6074L3.17172 21.7977C1.65765 20.5864 1.35484 18.3421 2.45922 16.7746C3.0114 15.9908 3.88422 15.4208 4.88172 15.2605C5.84359 15.0824 6.78765 15.2961 7.53578 15.8305L23.2286 27.0702C23.5492 27.3196 23.6739 27.3374 23.7095 27.3374C23.6917 27.3196 23.6561 27.1771 23.4245 26.9277L8.8539 11.5733C7.4289 9.97019 7.62484 7.49425 9.31703 5.92675C10.8311 4.55519 13.3605 4.59082 14.732 5.998L29.0355 20.8893C29.2848 21.1386 29.3917 21.1743 29.4452 21.1921C29.4273 21.103 29.3027 20.8536 29.267 20.7646L20.3608 5.998C19.8798 5.26769 19.7195 4.19894 19.9511 3.23707C20.1827 2.25738 20.7883 1.45582 21.6789 0.921442C23.6917 -0.271995 25.8827 0.672067 26.8445 2.27519L36.7127 18.1639C37.9595 20.248 40.008 22.1718 41.9139 23.098C42.1811 23.2227 42.5908 23.3296 42.9114 23.1514C43.232 22.9733 43.4636 22.5636 43.5348 21.9936C43.8198 19.7849 44.283 16.5074 45.2092 13.7643C45.708 12.2324 46.8658 11.0033 48.3798 10.3799C49.9117 9.75644 51.6573 9.82769 53.1714 10.5758C53.5455 10.7718 53.7414 11.1814 53.6345 11.5911L52.7261 15.1714C51.8533 18.6627 51.7286 22.2964 52.352 25.948C53.0823 30.1339 53.4208 33.7677 53.3673 36.7602C53.2783 41.8011 50.3036 44.3839 47.418 46.8955C47.0083 47.2518 46.5808 47.6258 46.1711 47.9999C42.3236 51.4555 38.7077 52.7736 35.4123 52.7736ZM3.70609 28.4418C3.13609 28.4418 2.60172 28.7446 2.28109 29.2968V29.3146C2.03172 29.7243 1.96047 30.2408 2.06734 30.7039C2.13859 30.9711 2.31672 31.3452 2.70859 31.5768L17.0298 39.5389C18.2411 40.1268 19.6839 41.4983 21.3583 43.1014C27.0405 48.4808 34.8067 55.8552 44.9598 46.6461C45.3873 46.2542 45.8148 45.898 46.2423 45.5239C49.0567 43.0658 51.497 40.9639 51.5861 36.7068C51.6395 33.8389 51.3011 30.3121 50.6064 26.233C49.9295 22.3321 50.072 18.4489 50.9983 14.7083L51.7108 11.8761C50.838 11.6089 49.9117 11.6446 49.0567 12.0008C48.0236 12.4283 47.2398 13.2655 46.9014 14.2986C46.0286 16.9171 45.5655 20.0521 45.2983 22.1896C45.1558 23.3118 44.6036 24.2202 43.7842 24.6833C43.0183 25.1108 42.0742 25.1108 41.1658 24.6833C38.9214 23.6146 36.6414 21.4593 35.2164 19.0724L25.3305 3.18363C25.0455 2.7205 23.9589 1.61613 22.6052 2.4355C22.1242 2.7205 21.8214 3.13019 21.6967 3.62894C21.5542 4.19894 21.6967 4.75113 21.8748 5.03613L30.7811 19.8027C31.5648 21.3524 31.0483 22.1539 30.4961 22.5814C30.0152 22.9377 29.0355 23.3652 27.7886 22.1361L13.4673 7.22707C12.7548 6.51457 11.3298 6.51457 10.5461 7.22707C9.45953 8.24238 9.49515 9.61394 10.172 10.3621L24.707 25.6808C25.7936 26.8208 25.5798 27.8896 25.0098 28.513C24.7605 28.798 23.7808 29.7064 22.1777 28.4952L6.50265 17.2733C6.1464 17.0239 5.68328 16.9171 5.18453 17.0061C4.66797 17.0952 4.20484 17.3802 3.91984 17.7899C3.34984 18.5914 3.51015 19.7849 4.25828 20.3905L19.6661 32.1824C21.0911 33.3046 20.9308 34.3021 20.5389 34.9255C20.1292 35.6024 19.292 36.2258 17.6711 35.3708L4.40078 28.5843C4.18703 28.4952 3.95547 28.4418 3.70609 28.4418Z" fill="#455A64"/>
<path d="M12.4698 49.4783C7.26859 49.4783 2.4414 46.5214 0.0901531 41.8368C-0.123597 41.4093 0.054528 40.8749 0.49984 40.6433C0.945153 40.4296 1.47953 40.6077 1.69328 41.0352C3.79515 45.2033 8.15922 47.8218 12.8261 47.6793C13.3248 47.6971 13.7345 48.0533 13.7345 48.5521C13.7523 49.0508 13.3605 49.4605 12.8617 49.4605C12.737 49.4783 12.6123 49.4783 12.4698 49.4783Z" fill="#455A64"/>
<path d="M12.3808 45.0608C12.3452 45.0608 12.3273 45.0608 12.2917 45.0608C8.87172 44.7224 5.82578 42.7274 4.16922 39.7171C3.93765 39.2896 4.08015 38.7374 4.52547 38.5058C4.95297 38.2743 5.50515 38.4168 5.73672 38.8621C7.10828 41.3558 9.63765 43.0124 12.4698 43.2974C12.9508 43.3508 13.3248 43.7783 13.2714 44.2771C13.218 44.7224 12.8261 45.0608 12.3808 45.0608Z" fill="#455A64"/>
<path d="M42.3236 12.6421C41.8783 12.6421 41.4864 12.3036 41.433 11.8405C40.9342 7.20926 37.7458 3.23707 33.3283 1.723C32.8651 1.56269 32.6158 1.06394 32.7761 0.600817C32.9364 0.137692 33.4351 -0.111683 33.8983 0.0486295C38.957 1.77644 42.6086 6.33644 43.1964 11.6624C43.2498 12.1433 42.8936 12.5886 42.4127 12.6421C42.3948 12.6421 42.3592 12.6421 42.3236 12.6421Z" fill="#455A64"/>
<path d="M37.9952 13.5327C37.5677 13.5327 37.1758 13.2121 37.1223 12.7668C36.6948 9.95238 34.9136 7.51207 32.3486 6.26519C31.9033 6.05144 31.7252 5.51707 31.9389 5.07175C32.1527 4.62644 32.687 4.44832 33.1323 4.66207C36.2139 6.17613 38.3692 9.09738 38.8858 12.4996C38.957 12.9805 38.6186 13.4436 38.1377 13.5149C38.0842 13.5149 38.0486 13.5327 37.9952 13.5327Z" fill="#455A64"/>
</svg>
