<svg width="48" height="48" viewBox="0 0 48 48" fill="none" xmlns="http://www.w3.org/2000/svg">
<path d="M35.4156 47.2427H11.8278C8.69196 47.2392 5.68561 45.992 3.46824 43.7747C1.25087 41.5574 0.00357733 38.5511 0 35.4153V11.8275C0.00357733 8.69167 1.25087 5.68534 3.46824 3.46803C5.68561 1.25072 8.69196 0.00349966 11.8278 0H35.4156C38.5514 0.00349966 41.5578 1.25072 43.7752 3.46803C45.9925 5.68534 47.2398 8.69167 47.2434 11.8275V35.4154C47.2398 38.5511 45.9925 41.5575 43.7751 43.7748C41.5577 45.9921 38.5514 47.2393 35.4156 47.2427ZM11.8278 1.96121C9.21195 1.96416 6.70412 3.00458 4.85445 4.85421C3.00478 6.70385 1.96432 9.21166 1.96133 11.8275V35.4154C1.96434 38.0311 3.00481 40.5389 4.85448 42.3885C6.70415 44.2382 9.21196 45.2786 11.8278 45.2815H35.4156C38.0315 45.2786 40.5393 44.2382 42.389 42.3885C44.2386 40.5388 45.2791 38.031 45.2821 35.4152V11.8275C45.2791 9.21164 44.2386 6.70382 42.3889 4.85418C40.5392 3.00455 38.0314 1.96414 35.4156 1.96121H11.8278Z" fill="#C6C0D0"/>
<path d="M23.6217 35.7006C21.2326 35.7006 18.8972 34.9922 16.9108 33.6649C14.9244 32.3376 13.3762 30.4511 12.4619 28.2439C11.5477 26.0368 11.3084 23.608 11.7745 21.2649C12.2406 18.9218 13.391 16.7694 15.0803 15.0801C16.7696 13.3908 18.9219 12.2404 21.265 11.7743C23.6081 11.3081 26.0369 11.5473 28.244 12.4615C30.4512 13.3758 32.3378 14.924 33.6651 16.9104C34.9924 18.8968 35.7009 21.2321 35.7009 23.6212C35.6973 26.8237 34.4235 29.894 32.159 32.1586C29.8945 34.4231 26.8242 35.697 23.6217 35.7006ZM23.6217 13.5033C21.6205 13.5033 19.6642 14.0967 18.0003 15.2085C16.3363 16.3202 15.0394 17.9005 14.2736 19.7493C13.5078 21.5982 13.3074 23.6326 13.6978 25.5953C14.0882 27.5581 15.0518 29.361 16.4669 30.776C17.8819 32.1911 19.6848 33.1547 21.6476 33.5451C23.6103 33.9355 25.6447 33.7352 27.4936 32.9693C29.3424 32.2035 30.9227 30.9066 32.0344 29.2426C33.1462 27.5787 33.7396 25.6224 33.7396 23.6212C33.7366 20.9387 32.6696 18.3669 30.7728 16.4701C28.876 14.5733 26.3042 13.5064 23.6217 13.5033Z" fill="#C6C0D0"/>
<path d="M36.1388 13.4682C35.4433 13.4681 34.7635 13.2619 34.1852 12.8754C33.607 12.489 33.1563 11.9398 32.8902 11.2972C32.624 10.6547 32.5544 9.94761 32.6901 9.26549C32.8259 8.58337 33.1608 7.95681 33.6526 7.46505C34.1444 6.97328 34.771 6.6384 35.4531 6.50274C36.1353 6.36708 36.8423 6.43674 37.4848 6.70292C38.1274 6.96909 38.6766 7.41983 39.0629 7.99812C39.4493 8.57641 39.6555 9.25629 39.6555 9.95178C39.6544 10.8841 39.2836 11.7779 38.6243 12.4372C37.965 13.0964 37.0712 13.4672 36.1388 13.4682ZM36.1388 8.39633C35.8312 8.39633 35.5305 8.48755 35.2747 8.65845C35.019 8.82935 34.8196 9.07225 34.7019 9.35645C34.5842 9.64065 34.5534 9.95337 34.6134 10.2551C34.6734 10.5568 34.8215 10.8339 35.039 11.0514C35.2565 11.269 35.5336 11.4171 35.8353 11.4771C36.137 11.5372 36.4498 11.5064 36.734 11.3887C37.0182 11.271 37.2611 11.0716 37.432 10.8159C37.6029 10.5601 37.6942 10.2594 37.6942 9.95178C37.6937 9.53941 37.5297 9.14407 37.2381 8.85247C36.9465 8.56087 36.5512 8.39682 36.1388 8.39633Z" fill="#C6C0D0"/>
</svg>
