<svg width="48" height="48" viewBox="0 0 48 48" fill="none" xmlns="http://www.w3.org/2000/svg">
<path d="M35.3221 46.6765H12.6778C9.66747 46.6732 6.78136 45.4758 4.65269 43.3472C2.52402 41.2186 1.32662 38.3325 1.32318 35.3222V12.6778C1.32662 9.66749 2.52402 6.78142 4.65269 4.6528C6.78136 2.52418 9.66747 1.32685 12.6778 1.32349H35.3222C38.3326 1.32685 41.2187 2.52418 43.3473 4.6528C45.476 6.78142 46.6734 9.66749 46.6768 12.6778V35.3222C46.6734 38.3326 45.476 41.2187 43.3473 43.3473C41.2186 45.4759 38.3325 46.6732 35.3221 46.6765ZM12.6778 3.20625C10.1667 3.20908 7.75914 4.20788 5.98346 5.98353C4.20777 7.75918 3.20893 10.1667 3.20606 12.6778V35.3222C3.20895 37.8334 4.2078 40.2409 5.98348 42.0165C7.75916 43.7921 10.1667 44.7909 12.6778 44.7938H35.3222C37.8334 44.7909 40.2409 43.7921 42.0166 42.0164C43.7923 40.2408 44.7911 37.8333 44.794 35.3221V12.6778C44.7911 10.1667 43.7922 7.75916 42.0165 5.9835C40.2408 4.20785 37.8333 3.20906 35.3221 3.20625H12.6778Z" fill="#C6C0D0"/>
<path d="M24 35.5961C21.7065 35.5961 19.4646 34.916 17.5576 33.6418C15.6506 32.3676 14.1643 30.5566 13.2867 28.4377C12.409 26.3188 12.1793 23.9872 12.6267 21.7378C13.0742 19.4884 14.1786 17.4222 15.8003 15.8004C17.422 14.1787 19.4882 13.0742 21.7376 12.6268C23.987 12.1793 26.3186 12.4089 28.4375 13.2866C30.5564 14.1642 32.3675 15.6505 33.6417 17.5574C34.9159 19.4644 35.596 21.7063 35.5961 23.9998C35.5926 27.0742 34.3698 30.0218 32.1959 32.1957C30.0219 34.3697 27.0744 35.5926 24 35.5961ZM24 14.2867C22.0789 14.2867 20.2009 14.8563 18.6035 15.9236C17.0061 16.9909 15.7611 18.5079 15.0259 20.2828C14.2907 22.0577 14.0983 24.0108 14.4731 25.895C14.8479 27.7792 15.773 29.51 17.1314 30.8685C18.4899 32.2269 20.2206 33.152 22.1049 33.5268C23.9891 33.9016 25.9422 33.7092 27.7171 32.974C29.4919 32.2388 31.009 30.9938 32.0763 29.3964C33.1436 27.799 33.7132 25.921 33.7132 23.9999C33.7103 21.4247 32.686 18.9558 30.8651 17.1348C29.0441 15.3138 26.5752 14.2896 24 14.2867Z" fill="#C6C0D0"/>
<path d="M36.0165 14.2529C35.3488 14.2529 34.6962 14.0549 34.141 13.6839C33.5859 13.3129 33.1533 12.7857 32.8978 12.1688C32.6423 11.552 32.5755 10.8732 32.7058 10.2184C32.8361 9.56353 33.1576 8.96204 33.6297 8.48994C34.1019 8.01784 34.7034 7.69635 35.3582 7.56612C36.0131 7.43589 36.6918 7.50277 37.3087 7.7583C37.9255 8.01383 38.4527 8.44653 38.8237 9.00169C39.1946 9.55685 39.3925 10.2095 39.3925 10.8772C39.3915 11.7722 39.0355 12.6303 38.4026 13.2632C37.7696 13.896 36.9115 14.252 36.0165 14.2529ZM36.0165 9.38397C35.7212 9.38397 35.4325 9.47154 35.187 9.6356C34.9414 9.79967 34.7501 10.0329 34.637 10.3057C34.524 10.5785 34.4944 10.8787 34.5521 11.1684C34.6097 11.458 34.7519 11.7241 34.9607 11.9329C35.1695 12.1417 35.4355 12.2839 35.7252 12.3415C36.0148 12.3992 36.315 12.3696 36.5878 12.2566C36.8607 12.1436 37.0939 11.9523 37.258 11.7067C37.422 11.4612 37.5096 11.1725 37.5096 10.8772C37.5092 10.4813 37.3517 10.1018 37.0718 9.82187C36.7919 9.54193 36.4124 9.38444 36.0165 9.38397Z" fill="#C6C0D0"/>
</svg>
