<svg width="308" height="49" viewBox="0 0 308 49" fill="none" xmlns="http://www.w3.org/2000/svg">
<path d="M22.08 31.104C22.08 33.7067 21.76 36.0533 21.12 38.144C20.48 40.2347 19.52 42.016 18.24 43.488C16.9813 44.96 15.4027 46.0907 13.504 46.88C11.6053 47.6693 9.39733 48.064 6.88 48.064C5.728 48.064 4.59733 47.9893 3.488 47.84C2.37867 47.712 1.216 47.4987 0 47.2C0.064 46.3467 0.138667 45.4933 0.224 44.64C0.309333 43.7867 0.384 42.9333 0.448 42.08C0.512 41.6107 0.693333 41.2373 0.992 40.96C1.312 40.6613 1.76 40.512 2.336 40.512C2.69867 40.512 3.168 40.5867 3.744 40.736C4.34133 40.8853 5.088 40.96 5.984 40.96C7.2 40.96 8.27733 40.7893 9.216 40.448C10.1547 40.0853 10.9333 39.52 11.552 38.752C12.192 37.984 12.672 36.992 12.992 35.776C13.312 34.5387 13.472 33.0453 13.472 31.296V1.28H22.08V31.104Z" fill="#2C2A30"/>
<path d="M44.1655 14.208C46.5975 14.208 48.8055 14.6027 50.7895 15.392C52.7948 16.1813 54.5015 17.3013 55.9095 18.752C57.3388 20.2027 58.4375 21.9733 59.2055 24.064C59.9735 26.1547 60.3575 28.4907 60.3575 31.072C60.3575 33.6747 59.9735 36.0213 59.2055 38.112C58.4375 40.2027 57.3388 41.984 55.9095 43.456C54.5015 44.928 52.7948 46.0587 50.7895 46.848C48.8055 47.6373 46.5975 48.032 44.1655 48.032C41.7122 48.032 39.4828 47.6373 37.4775 46.848C35.4722 46.0587 33.7548 44.928 32.3255 43.456C30.9175 41.984 29.8188 40.2027 29.0295 38.112C28.2615 36.0213 27.8775 33.6747 27.8775 31.072C27.8775 28.4907 28.2615 26.1547 29.0295 24.064C29.8188 21.9733 30.9175 20.2027 32.3255 18.752C33.7548 17.3013 35.4722 16.1813 37.4775 15.392C39.4828 14.6027 41.7122 14.208 44.1655 14.208ZM44.1655 41.952C46.8962 41.952 48.9122 41.0347 50.2135 39.2C51.5362 37.3653 52.1975 34.6773 52.1975 31.136C52.1975 27.5947 51.5362 24.896 50.2135 23.04C48.9122 21.184 46.8962 20.256 44.1655 20.256C41.3922 20.256 39.3335 21.1947 37.9895 23.072C36.6668 24.928 36.0055 27.616 36.0055 31.136C36.0055 34.656 36.6668 37.344 37.9895 39.2C39.3335 41.0347 41.3922 41.952 44.1655 41.952Z" fill="#2C2A30"/>
<path d="M73.7795 18.752C74.4408 18.0907 75.1342 17.4827 75.8595 16.928C76.6062 16.352 77.3848 15.872 78.1955 15.488C79.0275 15.0827 79.9128 14.7733 80.8515 14.56C81.7902 14.3253 82.8142 14.208 83.9235 14.208C85.7155 14.208 87.3048 14.5173 88.6915 15.136C90.0782 15.7333 91.2302 16.5867 92.1475 17.696C93.0862 18.784 93.7902 20.096 94.2595 21.632C94.7502 23.1467 94.9955 24.8213 94.9955 26.656V47.552H87.0915V26.656C87.0915 24.6507 86.6328 23.104 85.7155 22.016C84.7982 20.9067 83.4008 20.352 81.5235 20.352C80.1582 20.352 78.8782 20.6613 77.6835 21.28C76.4888 21.8987 75.3582 22.7413 74.2915 23.808V47.552H66.3875V14.72H71.2195C72.2435 14.72 72.9155 15.2 73.2355 16.16L73.7795 18.752Z" fill="#2C2A30"/>
<path d="M119.856 33.536C117.574 33.6427 115.654 33.8453 114.097 34.144C112.539 34.4213 111.291 34.784 110.353 35.232C109.414 35.68 108.742 36.2027 108.337 36.8C107.931 37.3973 107.729 38.048 107.729 38.752C107.729 40.1387 108.134 41.1307 108.945 41.728C109.777 42.3253 110.854 42.624 112.176 42.624C113.798 42.624 115.195 42.336 116.368 41.76C117.563 41.1627 118.726 40.2667 119.856 39.072V33.536ZM101.744 19.296C105.52 15.84 110.065 14.112 115.377 14.112C117.297 14.112 119.014 14.432 120.529 15.072C122.043 15.6907 123.323 16.5653 124.368 17.696C125.414 18.8053 126.203 20.1387 126.737 21.696C127.291 23.2533 127.569 24.96 127.569 26.816V47.552H123.985C123.238 47.552 122.662 47.4453 122.257 47.232C121.851 46.9973 121.531 46.5387 121.297 45.856L120.592 43.488C119.76 44.2347 118.95 44.896 118.16 45.472C117.371 46.0267 116.55 46.496 115.697 46.88C114.843 47.264 113.926 47.552 112.945 47.744C111.985 47.9573 110.918 48.064 109.744 48.064C108.358 48.064 107.078 47.8827 105.905 47.52C104.731 47.136 103.718 46.5707 102.865 45.824C102.011 45.0773 101.35 44.1493 100.881 43.04C100.411 41.9307 100.176 40.64 100.176 39.168C100.176 38.336 100.315 37.5147 100.592 36.704C100.87 35.872 101.318 35.0827 101.937 34.336C102.577 33.5893 103.398 32.8853 104.4 32.224C105.403 31.5627 106.63 30.9867 108.08 30.496C109.552 30.0053 111.259 29.6107 113.201 29.312C115.142 28.992 117.36 28.8 119.856 28.736V26.816C119.856 24.6187 119.387 22.9973 118.449 21.952C117.51 20.8853 116.155 20.352 114.384 20.352C113.104 20.352 112.038 20.5013 111.185 20.8C110.353 21.0987 109.617 21.44 108.977 21.824C108.337 22.1867 107.75 22.5173 107.216 22.816C106.704 23.1147 106.129 23.264 105.489 23.264C104.934 23.264 104.464 23.1253 104.08 22.848C103.696 22.5493 103.387 22.208 103.152 21.824L101.744 19.296Z" fill="#2C2A30"/>
<path d="M145.519 48.064C142.66 48.064 140.463 47.264 138.927 45.664C137.412 44.0427 136.655 41.8133 136.655 38.976V20.64H133.295C132.868 20.64 132.506 20.5013 132.207 20.224C131.908 19.9467 131.759 19.5307 131.759 18.976V15.84L137.039 14.976L138.703 6.016C138.81 5.58933 139.012 5.25867 139.311 5.024C139.61 4.78933 139.994 4.672 140.463 4.672H144.559V15.008H153.327V20.64H144.559V38.432C144.559 39.456 144.804 40.256 145.295 40.832C145.807 41.408 146.5 41.696 147.375 41.696C147.866 41.696 148.271 41.6427 148.591 41.536C148.932 41.408 149.22 41.28 149.455 41.152C149.711 41.024 149.935 40.9067 150.127 40.8C150.319 40.672 150.511 40.608 150.703 40.608C150.938 40.608 151.13 40.672 151.279 40.8C151.428 40.9067 151.588 41.0773 151.759 41.312L154.127 45.152C152.975 46.112 151.652 46.8373 150.159 47.328C148.666 47.8187 147.119 48.064 145.519 48.064Z" fill="#2C2A30"/>
<path d="M166.292 18.24C167.572 17.0453 168.98 16.0747 170.516 15.328C172.052 14.5813 173.854 14.208 175.924 14.208C177.716 14.208 179.305 14.5173 180.691 15.136C182.078 15.7333 183.23 16.5867 184.148 17.696C185.086 18.784 185.79 20.096 186.26 21.632C186.75 23.1467 186.995 24.8213 186.995 26.656V47.552H179.092V26.656C179.092 24.6507 178.633 23.104 177.715 22.016C176.798 20.9067 175.401 20.352 173.523 20.352C172.158 20.352 170.878 20.6613 169.684 21.28C168.489 21.8987 167.358 22.7413 166.292 23.808V47.552H158.387V0H166.292V18.24Z" fill="#2C2A30"/>
<path d="M211.857 33.536C209.574 33.6427 207.654 33.8453 206.096 34.144C204.539 34.4213 203.291 34.784 202.352 35.232C201.414 35.68 200.742 36.2027 200.337 36.8C199.931 37.3973 199.729 38.048 199.729 38.752C199.729 40.1387 200.134 41.1307 200.945 41.728C201.777 42.3253 202.854 42.624 204.176 42.624C205.798 42.624 207.195 42.336 208.368 41.76C209.563 41.1627 210.726 40.2667 211.857 39.072V33.536ZM193.745 19.296C197.521 15.84 202.064 14.112 207.376 14.112C209.296 14.112 211.014 14.432 212.529 15.072C214.043 15.6907 215.323 16.5653 216.368 17.696C217.414 18.8053 218.203 20.1387 218.736 21.696C219.291 23.2533 219.568 24.96 219.568 26.816V47.552H215.984C215.238 47.552 214.662 47.4453 214.257 47.232C213.851 46.9973 213.531 46.5387 213.297 45.856L212.592 43.488C211.76 44.2347 210.95 44.896 210.161 45.472C209.371 46.0267 208.55 46.496 207.697 46.88C206.843 47.264 205.926 47.552 204.945 47.744C203.985 47.9573 202.918 48.064 201.745 48.064C200.358 48.064 199.078 47.8827 197.904 47.52C196.731 47.136 195.718 46.5707 194.865 45.824C194.011 45.0773 193.35 44.1493 192.88 43.04C192.411 41.9307 192.176 40.64 192.176 39.168C192.176 38.336 192.315 37.5147 192.592 36.704C192.87 35.872 193.318 35.0827 193.936 34.336C194.576 33.5893 195.398 32.8853 196.4 32.224C197.403 31.5627 198.63 30.9867 200.081 30.496C201.553 30.0053 203.259 29.6107 205.201 29.312C207.142 28.992 209.361 28.8 211.857 28.736V26.816C211.857 24.6187 211.387 22.9973 210.449 21.952C209.51 20.8853 208.155 20.352 206.385 20.352C205.105 20.352 204.038 20.5013 203.184 20.8C202.352 21.0987 201.617 21.44 200.977 21.824C200.337 22.1867 199.75 22.5173 199.217 22.816C198.705 23.1147 198.128 23.264 197.488 23.264C196.934 23.264 196.465 23.1253 196.081 22.848C195.697 22.5493 195.387 22.208 195.152 21.824L193.745 19.296Z" fill="#2C2A30"/>
<path d="M234.404 18.752C235.066 18.0907 235.759 17.4827 236.484 16.928C237.231 16.352 238.01 15.872 238.82 15.488C239.652 15.0827 240.538 14.7733 241.477 14.56C242.415 14.3253 243.439 14.208 244.549 14.208C246.341 14.208 247.93 14.5173 249.316 15.136C250.703 15.7333 251.855 16.5867 252.773 17.696C253.711 18.784 254.415 20.096 254.885 21.632C255.375 23.1467 255.62 24.8213 255.62 26.656V47.552H247.717V26.656C247.717 24.6507 247.258 23.104 246.34 22.016C245.423 20.9067 244.026 20.352 242.148 20.352C240.783 20.352 239.503 20.6613 238.309 21.28C237.114 21.8987 235.983 22.7413 234.917 23.808V47.552H227.012V14.72H231.844C232.868 14.72 233.541 15.2 233.861 16.16L234.404 18.752Z" fill="#2C2A30"/>
<path d="M307.052 40.448V47.552H279.948V1.28H288.556V40.448H307.052Z" fill="#2C2A30"/>
</svg>
