<svg width="45" height="45" viewBox="0 0 45 45" fill="none" xmlns="http://www.w3.org/2000/svg">
<g clip-path="url(#clip0_299_48)">
<path d="M8.5962 32.8087C8.00873 32.8087 7.52198 32.3792 7.43729 31.8161C7.03408 29.8927 6.06972 28.1326 4.64645 26.7227C1.29638 23.4177 -0.372165 18.8225 0.0699606 14.1167C0.766906 6.79929 6.55877 0.905588 13.8425 0.10069C18.4156 -0.412005 22.9597 1.09099 26.3036 4.22286C26.7759 4.66536 26.8003 5.40693 26.3578 5.8792C25.9165 6.35146 25.1741 6.37664 24.7015 5.93337C21.8591 3.27224 17.9968 1.99661 14.1012 2.42995C7.91451 3.11431 2.99546 8.12148 2.40342 14.3379C2.02729 18.338 3.44559 22.245 6.29441 25.0565C8.06176 26.8067 9.25423 28.9993 9.74443 31.3988C9.76007 31.4758 9.76808 31.5544 9.76808 31.633C9.76808 32.28 9.24355 32.8087 8.5962 32.8087Z" fill="black"/>
<path d="M22.6606 32.8125C22.5835 32.8125 22.5053 32.8049 22.4264 32.7889C21.7924 32.6607 21.3823 32.0419 21.5109 31.4079C21.9904 29.0436 23.216 26.8173 25.0551 24.9695C25.4018 24.6201 25.7326 24.2477 26.0378 23.8632C26.4398 23.3566 27.1776 23.2712 27.6838 23.674C28.1911 24.0761 28.2758 24.8131 27.8734 25.3204C27.5152 25.7721 27.1261 26.21 26.7175 26.622C25.2016 28.1448 24.196 29.9606 23.8081 31.8733C23.6951 32.4295 23.2065 32.8125 22.6606 32.8125Z" fill="black"/>
<path d="M22.6591 39.0625H8.59888C6.66025 39.0625 5.08325 37.4855 5.08325 35.5469V33.9844C5.08325 32.0457 6.66025 30.4688 8.59888 30.4688H22.6591C24.5977 30.4688 26.1747 32.0457 26.1747 33.9844V35.5469C26.1747 37.4855 24.5977 39.0625 22.6591 39.0625ZM8.59888 32.8125C7.95267 32.8125 7.427 33.3382 7.427 33.9844V35.5469C7.427 36.1931 7.95267 36.7188 8.59888 36.7188H22.6591C23.3053 36.7188 23.8309 36.1931 23.8309 35.5469V33.9844C23.8309 33.3382 23.3053 32.8125 22.6591 32.8125H8.59888Z" fill="black"/>
<path d="M19.3292 44.5313H11.9287C10.367 44.5313 8.97691 43.483 8.54852 41.9815L7.47164 38.2127C7.29387 37.5901 7.65436 36.9416 8.27654 36.7639C8.89643 36.5861 9.54683 36.9453 9.72536 37.5687L10.8022 41.3377C10.9449 41.8382 11.4084 42.1875 11.9287 42.1875H19.3292C19.8495 42.1875 20.313 41.8382 20.4557 41.3377L21.5326 37.5687C21.7107 36.9453 22.3604 36.5876 22.9814 36.7639C23.6036 36.9416 23.9641 37.5901 23.7863 38.2127L22.7094 41.9815C22.281 43.483 20.891 44.5313 19.3292 44.5313Z" fill="black"/>
<path d="M37.89 37.4031C37.2427 37.4031 36.7181 36.8782 36.7181 36.2312C36.7181 33.8623 34.7906 31.9344 32.4213 31.9344C31.7739 31.9344 31.2494 31.4095 31.2494 30.7625C31.2494 30.1155 31.7739 29.5906 32.4213 29.5906C34.7906 29.5906 36.7181 27.6627 36.7181 25.2937C36.7181 24.6468 37.2427 24.1219 37.89 24.1219C38.5374 24.1219 39.0619 24.6468 39.0619 25.2937C39.0619 27.6627 40.9895 29.5906 43.3588 29.5906C44.0061 29.5906 44.5306 30.1155 44.5306 30.7625C44.5306 31.4095 44.0061 31.9344 43.3588 31.9344C40.9895 31.9344 39.0619 33.8623 39.0619 36.2312C39.0619 36.8782 38.5374 37.4031 37.89 37.4031ZM36.1845 30.7625C36.8509 31.2225 37.43 31.8016 37.89 32.4677C38.3501 31.8016 38.9291 31.2225 39.5956 30.7625C38.9291 30.3024 38.3501 29.7234 37.89 29.0573C37.43 29.7234 36.8509 30.3024 36.1845 30.7625Z" fill="black"/>
<path d="M30.4681 42.1875C29.8208 42.1875 29.2963 41.6625 29.2963 41.0155V36.328C29.2963 35.6811 29.8208 35.1562 30.4681 35.1562C31.1155 35.1562 31.64 35.6811 31.64 36.328V41.0155C31.64 41.6625 31.1155 42.1875 30.4681 42.1875Z" fill="black"/>
<path d="M32.8119 39.8438H28.1244C27.477 39.8438 26.9525 39.3188 26.9525 38.6719C26.9525 38.0249 27.477 37.5 28.1244 37.5H32.8119C33.4592 37.5 33.9838 38.0249 33.9838 38.6719C33.9838 39.3188 33.4592 39.8438 32.8119 39.8438Z" fill="black"/>
<path d="M18.3588 26.5625H12.89C12.2427 26.5625 11.7181 26.0376 11.7181 25.3906V23.275C11.4568 23.14 11.2016 22.9919 10.9541 22.8302L9.11614 23.8907C8.55576 24.2134 7.83974 24.0219 7.51588 23.4611L4.7815 18.7263C4.62586 18.457 4.5839 18.1366 4.66439 17.836C4.74527 17.5354 4.94249 17.2798 5.21218 17.1242L7.04553 16.0706C7.0356 15.918 7.03065 15.7707 7.03065 15.625C7.03065 15.4793 7.03561 15.332 7.04553 15.1794L5.21218 14.1258C4.94249 13.9702 4.74526 13.7146 4.66439 13.414C4.5839 13.1134 4.62586 12.793 4.7815 12.5237L7.51588 7.78884C7.83974 7.22884 8.55576 7.03811 9.11614 7.35931L10.9544 8.41979C11.2028 8.25805 11.4576 8.1108 11.7181 7.97805V5.85937C11.7181 5.2124 12.2427 4.6875 12.89 4.6875H18.3588C19.0061 4.6875 19.5306 5.2124 19.5306 5.85937V7.97347C19.7939 8.10776 20.0502 8.25576 20.2985 8.41522L22.1338 7.35931C22.6942 7.03658 23.4102 7.22808 23.7333 7.78961L24.5534 9.21172C24.8769 9.77172 24.6843 10.4889 24.1239 10.8124C23.5632 11.1351 22.8471 10.9436 22.5233 10.3821L22.2879 9.97467L20.8181 10.82C20.405 11.0573 19.8892 11.0207 19.5131 10.7285C19.0298 10.3516 18.4946 10.0441 17.922 9.81368C17.4779 9.63515 17.1869 9.20486 17.1869 8.7265V7.03125H14.0619V8.73413C14.0619 9.21707 13.7659 9.65042 13.3165 9.8259C12.7641 10.0411 12.2369 10.3462 11.7494 10.7315C11.3725 11.0298 10.8533 11.0664 10.4372 10.8276L8.95974 9.97543L7.39838 12.6785L8.88038 13.5307C9.30077 13.7726 9.52888 14.2487 9.45412 14.7278C9.39957 15.0765 9.37439 15.3618 9.37439 15.625C9.37439 15.8882 9.39957 16.1736 9.45412 16.5222C9.52888 17.0014 9.30077 17.4774 8.88038 17.7193L7.39838 18.5715L8.95974 21.2746L10.4372 20.4224C10.8522 20.1828 11.3718 20.221 11.7494 20.5185C12.2339 20.9015 12.7645 21.2105 13.3268 21.4363C13.7708 21.6149 14.0619 22.0452 14.0619 22.5235V24.2188H17.1869V22.5235C17.1869 22.0406 17.4829 21.6072 17.9323 21.4317C18.4953 21.212 19.0248 20.9076 19.5066 20.5261C19.8831 20.2286 20.4034 20.1912 20.8181 20.43L22.2883 21.2761L22.5065 20.8985C22.8304 20.3385 23.5471 20.1454 24.1071 20.4697C24.6675 20.7932 24.8598 21.5096 24.5359 22.0703L23.7329 23.4612C23.4102 24.0219 22.6942 24.2127 22.1338 23.8907L20.302 22.8371C20.0525 22.9988 19.795 23.1468 19.5306 23.2811V25.3906C19.5306 26.0376 19.0061 26.5625 18.3588 26.5625Z" fill="black"/>
<path d="M15.629 20.314C13.0437 20.314 10.9407 18.2106 10.9407 15.6258C10.9407 13.0409 13.0437 10.9375 15.629 10.9375C18.2142 10.9375 20.3172 13.0409 20.3172 15.6258C20.3172 18.2106 18.2142 20.314 15.629 20.314ZM15.629 13.2812C14.3362 13.2812 13.2845 14.3333 13.2845 15.6258C13.2845 16.9182 14.3362 17.9703 15.629 17.9703C16.9218 17.9703 17.9735 16.9182 17.9735 15.6258C17.9735 14.3333 16.9218 13.2812 15.629 13.2812Z" fill="black"/>
<path d="M33.402 22.2572C27.2657 22.2572 22.2734 17.2653 22.2734 11.129C22.2734 4.99268 27.2657 0 33.402 0C39.5383 0 44.5306 4.99267 44.5306 11.129C44.5306 17.2653 39.5383 22.2572 33.402 22.2572ZM33.402 2.34375C28.5581 2.34375 24.6172 6.28509 24.6172 11.129C24.6172 15.9729 28.5581 19.9135 33.402 19.9135C38.2459 19.9135 42.1869 15.9729 42.1869 11.129C42.1869 6.2851 38.2459 2.34375 33.402 2.34375Z" fill="black"/>
<path d="M31.8369 15.3625C31.8128 15.3625 31.7892 15.3618 31.7651 15.3603C31.4268 15.3397 31.1143 15.1733 30.908 14.9048L28.0012 11.1252C27.6067 10.6125 27.7025 9.87699 28.2156 9.48178C28.7286 9.08887 29.4645 9.18271 29.8589 9.69693L31.9463 12.4107L37.0393 7.24485C37.4944 6.78403 38.236 6.77792 38.6968 7.23264C39.1576 7.68736 39.163 8.42893 38.7086 8.88974L32.6715 15.0131C32.4506 15.2374 32.1497 15.3625 31.8369 15.3625Z" fill="black"/>
</g>
<defs>
<clipPath id="clip0_299_48">
<rect width="45" height="45" fill="white"/>
</clipPath>
</defs>
</svg>
