<svg width="40" height="40" viewBox="0 0 40 40" fill="none" xmlns="http://www.w3.org/2000/svg">
<path d="M27.4886 36.6667C27.2672 36.6667 27.0393 36.6577 26.8033 36.6382C23.151 36.3444 17.8222 33.6385 16.0465 31.1751C15.0439 29.7819 15.4427 27.7889 15.8268 25.8618C16.0372 25.0048 16.154 24.1276 16.1751 23.2454C15.3002 23.2705 14.4304 23.3892 13.5807 23.5994C11.6211 23.9949 9.5996 24.4035 8.20473 23.3415C6.12306 21.7521 4.01691 17.1533 3.78741 13.693C3.67526 12.9638 3.723 12.2189 3.92733 11.51C4.13166 10.8011 4.48769 10.145 4.97075 9.58739C7.94113 6.61539 16.7855 4.87385 20.4509 4.26269C25.0228 3.50177 32.9867 2.51382 34.9447 4.47269C38.0876 7.61804 34.9512 31.3721 30.8529 35.4696C30.4014 35.8851 29.8708 36.2052 29.2927 36.4109C28.7146 36.6166 28.101 36.7036 27.4886 36.6667ZM15.97 19.9097C16.4449 19.8789 16.9211 19.9454 17.3694 20.1051C17.8177 20.2648 18.2288 20.5142 18.5774 20.8382C19.9543 22.2152 19.5181 24.4011 19.0966 26.5153C18.8514 27.4167 18.7465 28.3505 18.7857 29.2839C21.0664 31.4485 23.9595 32.8567 27.0702 33.3163C27.9638 33.3903 28.3869 33.2227 28.496 33.1128C31.748 29.8617 33.8427 10.1392 32.5618 6.87175C29.4026 5.75195 10.7161 8.55469 7.32743 11.9442C7.08913 12.4154 7.01359 12.9522 7.1126 13.4708C7.37059 16.1443 8.46008 18.6696 10.2278 20.6917C11.1363 20.6867 12.0404 20.5659 12.9183 20.332C13.9196 20.0937 14.9415 19.9522 15.97 19.9097Z" fill="#EBE6F3"/>
</svg>
