<svg width="35" height="35" viewBox="0 0 35 35" fill="none" xmlns="http://www.w3.org/2000/svg">
<path d="M20.9358 34.349C18.8736 34.3496 16.8291 33.9685 14.9055 33.2251C11.7572 32.1063 8.86735 30.363 6.40943 28.0998C4.18241 25.767 2.4335 23.0209 1.26133 20.0163C0.0689697 17.1596 -0.287747 14.0231 0.23268 10.9717C0.585806 8.73694 1.28656 6.57123 2.3095 4.55322C3.90616 1.43392 5.34173 0.0293 6.9595 0C7.82043 0.0711984 8.65749 0.318844 9.41857 0.72752C10.1797 1.1362 10.8485 1.69716 11.3834 2.37548C13.5579 4.68098 15.6884 8.64583 15.4882 11.2907C15.4426 11.8945 15.3222 13.5042 10.7551 16.919C10.9746 18.639 11.7922 20.2269 13.0647 21.4047C14.2669 22.6453 15.8548 23.441 17.5683 23.6614C21.0042 19.1667 22.5992 19.0455 23.1982 18.9999C25.83 18.7949 29.8095 20.9302 32.1142 23.1072C32.7959 23.6382 33.3592 24.3056 33.7681 25.0668C34.177 25.828 34.4225 26.6662 34.4889 27.5277C34.4564 29.3165 32.653 30.6096 31.2988 31.4267C28.7679 32.9266 25.9497 33.8771 23.0273 34.2163L22.9915 34.2212C22.3096 34.3064 21.623 34.349 20.9358 34.349ZM7.13698 3.34717C6.33725 4.11943 5.70365 5.04687 5.275 6.07265C4.42326 7.75396 3.83688 9.55697 3.53666 11.4177C3.10115 13.878 3.37669 16.4115 4.33093 18.7207C5.34296 21.3151 6.84178 23.692 8.74663 25.7235C10.8871 27.6593 13.3897 29.1523 16.11 30.1164C18.1579 30.9078 20.3693 31.1829 22.5488 30.9172L22.5829 30.9131C25.053 30.6334 27.4362 29.8356 29.5767 28.5718C30.1671 28.262 30.6974 27.8491 31.1425 27.3527C30.8744 26.6388 30.4197 26.0099 29.8258 25.5314C28.084 23.8601 25.8859 22.7426 23.5092 22.3202C22.2278 23.2103 21.1381 24.3485 20.3044 25.6673C19.9305 26.1714 19.4212 26.559 18.8358 26.7853C18.2504 27.0116 17.6129 27.0672 16.9971 26.9458C14.616 26.6088 12.4124 25.4961 10.7276 23.7801C8.99606 22.1515 7.85931 19.9903 7.49843 17.6408C7.35981 17.0144 7.40493 16.3613 7.62837 15.7599C7.85181 15.1585 8.24407 14.6344 8.75806 14.2505C10.1183 13.4072 11.2839 12.2846 12.1777 10.957C11.7596 8.5838 10.638 6.39099 8.95826 4.66308C8.47999 4.06923 7.85098 3.61476 7.13698 3.34717Z" fill="#EBE6F3"/>
<path d="M26.5673 14.5076C26.3484 14.5077 26.1317 14.4646 25.9294 14.3809C25.7272 14.2972 25.5434 14.1744 25.3887 14.0196C25.2339 13.8648 25.1111 13.6811 25.0274 13.4789C24.9437 13.2766 24.9006 13.0599 24.9006 12.841V2.84098C24.9006 2.39896 25.0762 1.97503 25.3888 1.66247C25.7013 1.34991 26.1253 1.17432 26.5673 1.17432C27.0093 1.17432 27.4333 1.34991 27.7458 1.66247C28.0584 1.97503 28.234 2.39896 28.234 2.84098V12.841C28.234 13.0599 28.191 13.2766 28.1072 13.4789C28.0235 13.6811 27.9007 13.8648 27.7459 14.0196C27.5912 14.1744 27.4074 14.2972 27.2052 14.3809C27.0029 14.4646 26.7862 14.5077 26.5673 14.5076Z" fill="#EBE6F3"/>
<path d="M31.5673 9.50765H21.5673C21.1253 9.50765 20.7014 9.33205 20.3888 9.01949C20.0762 8.70693 19.9006 8.28301 19.9006 7.84098C19.9006 7.39896 20.0762 6.97503 20.3888 6.66247C20.7014 6.34991 21.1253 6.17432 21.5673 6.17432H31.5673C32.0093 6.17432 32.4333 6.34991 32.7458 6.66247C33.0584 6.97503 33.234 7.39896 33.234 7.84098C33.234 8.28301 33.0584 8.70693 32.7458 9.01949C32.4333 9.33205 32.0093 9.50765 31.5673 9.50765Z" fill="#EBE6F3"/>
</svg>
