<svg width="77" height="178" viewBox="0 0 77 178" fill="none" xmlns="http://www.w3.org/2000/svg">
<path fill-rule="evenodd" clip-rule="evenodd" d="M29.8073 168.491C27.5089 166.654 25.3524 164.419 23.6925 163.015L20.174 159.943C19.9257 159.716 19.3298 159.113 18.9964 158.766C18.8616 158.581 18.7127 158.411 18.5353 158.255C18.3225 158.063 18.1736 157.957 18.1026 157.914C16.9392 157.12 16.017 157.347 15.7191 157.404C14.1727 157.694 13.2576 158.61 13.1299 160.298C13.1157 160.44 12.9596 161.561 13.9811 162.717C14.2862 163.057 15.4141 164.207 15.8965 164.646L19.5781 167.86C21.7985 169.74 24.8771 172.989 28.0126 175.06C29.864 176.273 31.7581 177.103 33.5457 177.337C35.4539 177.578 37.7736 176.564 39.845 174.138C43.3706 169.988 46.9742 161.241 48.3078 158.95C49.1945 157.439 48.6838 155.488 47.1728 154.609C45.6547 153.722 43.711 154.233 42.8243 155.744C41.966 157.212 40.1784 161.404 38.0786 165.263C37.4827 166.342 36.8727 167.399 36.2484 168.335C35.5887 164.412 34.7374 158.071 34.8439 152.325C34.9148 148.636 35.2766 145.195 36.667 143.145L44.158 139.201C48.6199 136.073 52.3299 132.065 54.4439 127.525C56.7139 122.644 57.2175 117.154 54.9546 111.358C52.3725 104.725 48.0524 100.49 42.8527 97.4189C35.8086 93.2477 27.0336 91.3821 19.266 87.97C16.6626 86.8279 13.9031 85.1681 12.0871 82.969C10.6045 81.1814 9.81711 78.9893 10.718 76.4143C11.5905 73.9173 13.286 71.8459 15.3219 70.0583C18.734 67.0435 23.0895 64.8231 26.7995 62.9646C36.369 58.1905 51.124 53.1398 61.9207 45.2373C70.0785 39.2715 76.016 31.7095 76.7112 21.7711C76.9665 18.0895 75.9379 15.0251 74.129 12.4287C71.7172 8.97408 67.8085 6.39907 63.8431 4.41991C58.4022 1.7101 52.7627 0.418876 47.0451 0.0854693C38.7596 -0.389812 30.3039 1.17799 22.0964 3.27774C19.72 3.88781 17.2443 4.43403 14.7473 4.83838C12.2999 5.24272 9.8313 5.50528 7.42652 5.55494C6.68877 5.56913 1.7728 6.12937 0.815141 7.3353C0.0419227 8.30715 -0.263109 9.47052 0.261828 10.8822C0.878985 12.5208 2.70917 13.3579 4.35492 12.7478C4.80892 12.5776 5.19908 12.3151 5.5183 11.9817L7.5613 11.9109C10.2569 11.8542 13.0235 11.5633 15.7688 11.1164C18.4502 10.6766 21.1175 10.0948 23.6712 9.44213C31.2402 7.50553 39.0363 5.99475 46.6762 6.44166C51.5496 6.71831 56.3663 7.80348 61.0056 10.116C63.5523 11.3858 66.1131 12.897 67.9717 14.9116C69.5323 16.5999 70.5467 18.6783 70.3623 21.3243C69.8019 29.3473 64.7511 35.2848 58.1681 40.1015C47.6552 47.784 33.269 52.6218 23.955 57.2682C19.7909 59.3467 14.9388 61.9004 11.1082 65.2771C8.23521 67.8024 5.92974 70.7891 4.70252 74.3218C3.30505 78.3226 3.92221 81.8694 5.68855 84.9126C7.97983 88.8638 12.4276 91.9283 16.7051 93.8081C24.2387 97.1209 32.7725 98.8661 39.6038 102.91C43.633 105.286 47.0096 108.535 49.0172 113.671C50.5707 117.672 50.2302 121.467 48.6625 124.829C46.9884 128.404 44.009 131.511 40.4976 133.98C38.9724 135.044 36.5393 135.668 34.6665 136.718C33.3045 137.477 32.1624 138.421 31.3821 139.563C29.4597 142.4 28.5588 147.082 28.4595 152.204C28.3531 157.943 29.1263 164.249 29.8073 168.491ZM16.6342 163.795C16.2228 163.823 15.8042 163.774 15.407 163.639C15.0097 163.511 14.6338 163.291 14.3075 163.001C15.1658 163.767 15.9461 163.944 16.6342 163.795Z" fill="black"/>
</svg>
