<svg width="144" height="144" viewBox="0 0 144 144" fill="none" xmlns="http://www.w3.org/2000/svg">
<path d="M131.344 0C125.624 0 120.781 3.81516 119.218 9.03347C61.2807 14.7507 14.7507 61.2807 9.03347 119.218C3.81516 120.781 0 125.624 0 131.344C0 138.322 5.67759 144 12.6562 144C19.6349 144 25.3125 138.322 25.3125 131.344C25.3125 126.071 22.0705 121.543 17.4757 119.643C22.9615 66.0167 65.9936 22.9767 119.617 17.4786C121.462 22.0818 125.942 25.5938 131.344 25.5938C138.338 25.5938 144 19.658 144 12.6562C144 5.67759 138.322 0 131.344 0ZM12.6562 135.562C10.33 135.562 8.4375 133.67 8.4375 131.344C8.4375 129.018 10.33 127.125 12.6562 127.125C14.9825 127.125 16.875 129.018 16.875 131.344C16.875 133.67 14.9825 135.562 12.6562 135.562ZM131.344 17.1562C129.096 17.1562 127.125 15.0533 127.125 12.6562C127.125 10.33 129.018 8.4375 131.344 8.4375C133.67 8.4375 135.562 10.33 135.562 12.6562C135.562 15.0533 133.591 17.1562 131.344 17.1562Z" fill="black"/>
</svg>
