<svg width="96" height="99" viewBox="0 0 96 99" fill="none" xmlns="http://www.w3.org/2000/svg">
<path fill-rule="evenodd" clip-rule="evenodd" d="M81.524 90.316C55.8796 84.6353 32.7511 70.7779 33.367 41.7929C31.4664 40.6646 29.6041 39.388 27.7828 37.982C17.1614 29.7816 7.94373 17.1252 1.05007 4.08755L0 2.10067L3.97321 0L5.02328 1.98634C11.6128 14.4491 20.3763 26.5855 30.5296 34.4246C31.5743 35.2315 32.6341 35.9919 33.7068 36.7011C34.3432 31.0873 37.0598 19.8218 44.8153 13.8213C57.5509 3.96782 72.0081 10.3022 76.0288 20.7225C80.6848 32.7899 70.5001 42.8769 64.4667 45.2047C55.2129 48.775 46.2369 47.9498 37.8758 44.1546C38.6017 69.0164 59.4747 80.7797 82.2272 85.8688L83.4337 78.2405L95.1716 90.3349L80.2743 98.2166L81.524 90.316ZM37.989 39.2144C45.7586 43.2 54.1521 44.3671 62.8487 41.012C67.4664 39.23 75.3994 31.5759 71.8355 22.3405C68.7198 14.2652 57.435 9.74022 47.5658 17.376C40.7838 22.6231 38.6589 32.6271 38.1503 37.4001C38.085 38.0128 38.0311 38.6179 37.989 39.2144Z" fill="url(#paint0_linear_33_64)"/>
<defs>
<linearGradient id="paint0_linear_33_64" x1="47.5858" y1="0" x2="47.5858" y2="98.2166" gradientUnits="userSpaceOnUse">
<stop offset="0.9999"/>
<stop offset="1" stop-color="#00DC63"/>
</linearGradient>
</defs>
</svg>
