<svg width="40" height="40" viewBox="0 0 40 40" fill="none" xmlns="http://www.w3.org/2000/svg">
<path d="M31.6666 34.1667H8.33329C6.56576 34.1648 4.87116 33.4618 3.62133 32.212C2.37149 30.9622 1.66851 29.2676 1.66663 27.5V12.5C1.66851 10.7325 2.37149 9.03791 3.62133 7.78808C4.87116 6.53824 6.56576 5.83526 8.33329 5.83337H31.6666C33.4342 5.83526 35.1288 6.53824 36.3786 7.78808C37.6284 9.03791 38.3314 10.7325 38.3333 12.5V27.5C38.3314 29.2676 37.6284 30.9622 36.3786 32.212C35.1288 33.4618 33.4342 34.1648 31.6666 34.1667ZM8.33329 9.16671C7.44955 9.16772 6.60229 9.51923 5.97739 10.1441C5.35248 10.769 5.00097 11.6163 4.99996 12.5V27.5C5.00097 28.3838 5.35248 29.231 5.97739 29.8559C6.60229 30.4808 7.44955 30.8324 8.33329 30.8334H31.6666C32.5504 30.8324 33.3976 30.4808 34.0225 29.8559C34.6474 29.231 34.9989 28.3838 35 27.5V12.5C34.9989 11.6163 34.6474 10.769 34.0225 10.1441C33.3976 9.51923 32.5504 9.16772 31.6666 9.16671H8.33329Z" fill="#EBE6F3"/>
<path d="M20 22.3894C18.1462 22.3901 16.3452 21.7717 14.8828 20.6324L3.97614 12.1493C3.62713 11.8778 3.40028 11.4788 3.3455 11.04C3.29071 10.6012 3.41247 10.1586 3.68399 9.80963C3.95551 9.46063 4.35454 9.23378 4.79332 9.17899C5.2321 9.1242 5.67467 9.24596 6.02367 9.51748L16.9302 18.0005C17.8073 18.6844 18.8877 19.0558 19.9999 19.0558C21.1121 19.0558 22.1925 18.6844 23.0696 18.0005L33.9761 9.51748C34.3251 9.24596 34.7677 9.1242 35.2065 9.17899C35.6453 9.23378 36.0443 9.46063 36.3158 9.80963C36.5873 10.1586 36.7091 10.6012 36.6543 11.04C36.5995 11.4788 36.3727 11.8778 36.0237 12.1493L25.117 20.6324C23.6545 21.7713 21.8537 22.3896 20 22.3894Z" fill="#EBE6F3"/>
</svg>
