<svg width="43" height="44" viewBox="0 0 43 44" fill="none" xmlns="http://www.w3.org/2000/svg">
<path d="M41.7791 33.4232C41.7442 33.3804 35.2278 27.2186 35.186 27.1758C34.2319 26.4561 33.0361 26.134 31.8496 26.2772C30.6631 26.4204 29.5783 27.0178 28.8228 27.9438C25.4879 32.125 17.9359 24.3213 14.9591 19.2939C13.3901 15.7983 15.585 14.4357 15.772 14.2658C18.3816 11.8313 17.4974 9.11559 16.6295 7.97653L10.6698 1.20161C6.86939 -2.60651 1.97713 3.74954 1.29792 4.92372C-4.4017 13.8222 10.4461 29.584 11.6265 30.8445C12.2651 31.6262 28.8775 48.1882 37.7111 42.6482C38.856 42.0332 45.4687 37.3768 41.7791 33.4232ZM41.2835 36.4181C40.9761 38.4719 38.0235 40.6425 36.9119 41.3055C28.9846 46.0277 13.7285 30.7521 12.7931 29.8027C12.5685 29.5676 -2.48985 13.8033 2.61002 5.77117C3.31051 4.6871 5.58102 1.82226 7.6524 1.58766C7.99864 1.5497 8.34897 1.59219 8.6761 1.71182C9.00323 1.83145 9.29832 2.02499 9.53839 2.27735L15.4172 8.96032C15.5725 9.17126 16.8641 11.0664 14.7512 13.081C13.5621 13.8935 11.8585 16.3055 13.5621 19.9924C14.2379 21.1728 15.0151 22.2922 15.8849 23.3379C17.8595 25.964 20.3274 28.1797 23.1504 29.861C26.7297 31.678 29.2001 30.0651 30.055 28.9062C32.1527 26.8699 33.9959 28.2257 34.1539 28.3478L40.64 34.4932C40.889 34.7423 41.0768 35.0458 41.1885 35.3799C41.3002 35.7139 41.3327 36.0693 41.2835 36.4181Z" fill="#EBE6F3"/>
</svg>
