<svg width="48" height="48" viewBox="0 0 48 48" fill="none" xmlns="http://www.w3.org/2000/svg">
<path d="M43.5319 35.0767C43.4984 35.0357 37.2426 29.1203 37.2025 29.0792C36.2866 28.3883 35.1386 28.0792 33.9996 28.2166C32.8606 28.3541 31.8191 28.9275 31.0938 29.8165C27.8924 33.8304 20.6424 26.3389 17.7847 21.5126C16.2784 18.1568 18.3856 16.8487 18.565 16.6856C21.0703 14.3485 20.2214 11.7414 19.3883 10.6479L13.667 4.14403C10.0186 0.488233 5.32199 6.59004 4.66995 7.71725C-0.80168 16.2597 13.4522 31.3911 14.5854 32.6012C15.1985 33.3516 31.1464 49.2512 39.6266 43.9327C40.7257 43.3423 47.0739 38.8722 43.5319 35.0767ZM43.0561 37.9519C42.761 39.9235 39.9265 42.0073 38.8594 42.6437C31.2491 47.1771 16.6033 32.5125 15.7053 31.601C15.4897 31.3754 1.0337 16.2417 5.92957 8.5308C6.60204 7.4901 8.78173 4.73985 10.7703 4.51463C11.1026 4.47819 11.439 4.51898 11.753 4.63383C12.067 4.74867 12.3503 4.93447 12.5808 5.17674L18.2245 11.5924C18.3735 11.7949 19.6135 13.6142 17.5851 15.5482C16.4436 16.3282 14.8081 18.6438 16.4436 22.1832C17.0924 23.3164 17.8385 24.391 18.6734 25.3949C20.5691 27.9159 22.9383 30.043 25.6483 31.6571C29.0845 33.4013 31.456 31.853 32.2767 30.7405C34.2905 28.7856 36.06 30.0871 36.2117 30.2043L42.4383 36.104C42.6774 36.3431 42.8577 36.6345 42.9649 36.9552C43.0721 37.2759 43.1033 37.617 43.0561 37.9519Z" fill="#C6C0D0"/>
</svg>
