<svg width="99" height="99" viewBox="0 0 99 99" fill="none" xmlns="http://www.w3.org/2000/svg">
<path d="M85.427 51.48H34.2539C33.1649 51.48 32.2739 50.589 32.2739 49.5C32.2739 48.411 33.1649 47.52 34.2539 47.52H85.427C86.516 47.52 87.407 48.411 87.407 49.5C87.407 50.589 86.516 51.48 85.427 51.48Z" fill="black"/>
<path fill-rule="evenodd" clip-rule="evenodd" d="M16.2854 47.52C17.3744 47.52 18.2654 48.411 18.2654 49.5C18.2654 50.589 17.3744 51.48 16.2854 51.48C15.1964 51.48 14.3054 50.589 14.3054 49.5C14.3054 48.411 15.1865 47.52 16.2854 47.52Z" fill="black"/>
<path d="M25.2649 51.48C26.3584 51.48 27.2449 50.5935 27.2449 49.5C27.2449 48.4065 26.3584 47.52 25.2649 47.52C24.1714 47.52 23.2849 48.4065 23.2849 49.5C23.2849 50.5935 24.1714 51.48 25.2649 51.48Z" fill="black"/>
<path d="M72.2699 66.9438C71.8145 66.9438 71.3591 66.7854 70.9928 66.4686C70.1612 65.7558 70.0622 64.5084 70.7651 63.6768L82.8233 49.5L70.7651 35.3133C70.0523 34.4817 70.1612 33.2343 70.9928 32.5215C71.8244 31.8087 73.0718 31.9176 73.7846 32.7492L86.9318 48.213C87.5555 48.9555 87.5555 50.0346 86.9318 50.7771L73.7846 66.2508C73.3886 66.7161 72.8342 66.9438 72.2699 66.9438Z" fill="black"/>
</svg>
