<svg xmlns="http://www.w3.org/2000/svg" version="1.1" xmlns:xlink="http://www.w3.org/1999/xlink" width="512" height="512" x="0" y="0" viewBox="0 0 32 32" style="enable-background:new 0 0 512 512" xml:space="preserve" fill-rule="evenodd"><g transform="matrix(0.49999999999999944,0,0,0.49999999999999944,7.426145315170291,8.652915954589853)"><path d="m24.559 21.557-.325.361-.798.94-1.282 1.453a.449.449 0 0 0 .66.607l1.307-1.483.792-.932c.166-.193.726-.708.968-1.114.137-.231.185-.451.161-.62-.01-.07-.083-.281-.352-.414-.288-.142-1.052-.397-1.141-.434-.386-.159-1.158-.505-1.785-.914-.37-.241-.704-.48-.788-.735a.448.448 0 1 0-.851.281c.106.322.415.674.841.991.685.509 1.666.964 2.174 1.178-.406.135-.8.217-1.192.263-.842.099-1.679.037-2.618-.021-.385-.024-.815-.043-1.181-.189a.968.968 0 0 1-.477-.369c-.295-.451-.472-.995-.594-1.577-.3-1.429-.274-3.075-.567-4.326-.262-1.117-.851-2.686-1.791-3.733-.706-.788-1.604-1.289-2.691-1.192-.811.073-1.299.504-1.591 1.094-.362.731-.381 1.748-.37 2.502.021 1.493.033 3.015-.23 4.478-.17.945-.456 1.866-.936 2.734-.313.566-.7 1.093-1.188 1.43-.446.307-.979.441-1.616.274-.409-.107-.719-.347-.968-.648-.279-.337-.484-.747-.658-1.156a11.507 11.507 0 0 1-.785-2.87c-.143-1-.168-2.017-.081-2.989l.224-2.534.057-.882.018-.351a.407.407 0 0 0 .003-.05l-.004-.007c-.018-.216-.192-.252-.381-.219-.235-.083-.494-.087-.513.238l-.018.347-.056.86-.225 2.517a13.951 13.951 0 0 0 .085 3.197c.153 1.072.433 2.126.846 3.096.253.595.571 1.186 1.022 1.629.326.322.72.569 1.205.696.735.194 1.376.107 1.935-.158.794-.376 1.421-1.133 1.891-1.981.53-.957.849-1.97 1.037-3.012.274-1.519.268-3.101.247-4.651-.009-.627-.024-1.477.277-2.086.157-.316.418-.549.854-.588.785-.069 1.419.323 1.929.892.835.934 1.345 2.337 1.578 3.332.291 1.245.263 2.884.56 4.305.146.7.369 1.35.723 1.893.23.352.547.579.909.723.454.18.986.222 1.463.252.999.063 1.889.123 2.784.019a6.837 6.837 0 0 0 1.503-.347z" fill="#000000" opacity="1" data-original="#000000"></path></g></svg>