<svg width="65" height="65" viewBox="0 0 65 65" fill="none" xmlns="http://www.w3.org/2000/svg">
<g clip-path="url(#clip0_284_38)">
<path d="M64.3406 34.7629C65.2196 34.3233 65.2196 32.895 64.3406 32.4555C57.5283 28.7197 50.6061 25.3135 43.1345 23.3357C42.0358 23.116 40.937 24.3246 41.5963 25.3135C43.1345 27.511 45.0024 29.3789 47.1999 31.0271C31.8173 30.5876 15.8852 28.4999 0.722332 32.1258C-0.37643 32.3456 -0.156682 34.2133 0.942259 34.1034C16.6545 32.1258 32.257 33.6641 47.9693 33.8837C46.3211 35.7516 44.673 37.6194 43.0248 39.3775C42.2557 40.1466 42.6952 41.7949 44.0137 41.685C51.2654 40.8059 58.0777 38.3886 64.3406 34.7629ZM51.2654 33.5542C52.2542 32.895 52.0345 31.0271 50.4962 31.0271H50.2765C48.958 29.7085 47.6394 28.4999 46.3209 27.0715C51.3752 28.8295 56.0999 31.0271 60.8246 33.554C56.5394 35.7516 52.1444 37.3997 47.4197 38.2787C48.5185 37.0701 49.6172 35.7516 50.8259 34.5427C51.2654 34.3233 51.3752 33.8837 51.2654 33.5542Z" fill="black"/>
</g>
<defs>
<clipPath id="clip0_284_38">
<rect width="65" height="65" fill="white"/>
</clipPath>
</defs>
</svg>
