<svg width="65" height="65" viewBox="0 0 65 65" fill="none" xmlns="http://www.w3.org/2000/svg">
<path d="M0.659257 30.237C-0.219752 30.6765 -0.219752 32.1049 0.659257 32.5444C7.47158 36.2802 14.3938 39.6864 21.8654 41.6641C22.9641 41.8839 24.0629 40.6753 23.4036 39.6864C21.8654 37.4889 19.9975 35.621 17.7999 33.9728C33.1826 34.4123 49.1146 36.5 64.2775 32.8741C65.3763 32.6543 65.1566 30.7866 64.0576 30.8965C48.3453 32.8741 32.7429 31.3358 17.0306 31.1162C18.6788 29.2483 20.3269 27.3804 21.9751 25.6224C22.7442 24.8533 22.3047 23.205 20.9862 23.3148C13.7345 24.194 6.9222 26.6113 0.659257 30.237ZM13.7345 31.4457C12.7456 32.1049 12.9654 33.9728 14.5037 33.9728H14.7234C16.0419 35.2913 17.3604 36.5 18.6789 37.9284C13.6246 36.1703 8.89997 33.9728 4.17529 31.4458C8.46046 29.2483 12.8555 27.6002 17.5802 26.7212C16.4814 27.9298 15.3827 29.2483 14.174 30.4571C13.7345 30.6765 13.6246 31.1162 13.7345 31.4457Z" fill="black"/>
</svg>
