<svg width="305" height="92" viewBox="0 0 305 92" fill="none" xmlns="http://www.w3.org/2000/svg">
<path d="M21.504 31.168C21.504 33.7493 21.184 36.0747 20.544 38.144C19.9253 40.192 18.9867 41.9413 17.728 43.392C16.4907 44.8213 14.944 45.9307 13.088 46.72C11.2533 47.488 9.12001 47.872 6.68801 47.872C5.57867 47.872 4.48001 47.7973 3.39201 47.648C2.30401 47.52 1.17334 47.3067 7.62939e-06 47.008L0.384008 42.528C0.448008 42.1013 0.608008 41.76 0.864008 41.504C1.14134 41.248 1.53601 41.12 2.04801 41.12C2.43201 41.12 2.92267 41.2053 3.52001 41.376C4.13867 41.5253 4.93867 41.6 5.92001 41.6C7.22134 41.6 8.37334 41.408 9.37601 41.024C10.4 40.64 11.2533 40.0427 11.936 39.232C12.64 38.4 13.1627 37.344 13.504 36.064C13.8667 34.7627 14.048 33.1947 14.048 31.36V1.28H21.504V31.168ZM43.7555 14.208C46.1662 14.208 48.3422 14.6027 50.2835 15.392C52.2462 16.1813 53.9102 17.3013 55.2755 18.752C56.6622 20.2027 57.7288 21.9627 58.4755 24.032C59.2222 26.1013 59.5955 28.4267 59.5955 31.008C59.5955 33.5893 59.2222 35.9147 58.4755 37.984C57.7288 40.0533 56.6622 41.824 55.2755 43.296C53.9102 44.7467 52.2462 45.8667 50.2835 46.656C48.3422 47.4453 46.1662 47.84 43.7555 47.84C41.3235 47.84 39.1262 47.4453 37.1635 46.656C35.2222 45.8667 33.5582 44.7467 32.1715 43.296C30.7848 41.824 29.7182 40.0533 28.9715 37.984C28.2248 35.9147 27.8515 33.5893 27.8515 31.008C27.8515 28.4267 28.2248 26.1013 28.9715 24.032C29.7182 21.9627 30.7848 20.2027 32.1715 18.752C33.5582 17.3013 35.2222 16.1813 37.1635 15.392C39.1262 14.6027 41.3235 14.208 43.7555 14.208ZM43.7555 42.464C46.6995 42.464 48.8862 41.4827 50.3155 39.52C51.7662 37.536 52.4915 34.7093 52.4915 31.04C52.4915 27.3707 51.7662 24.544 50.3155 22.56C48.8862 20.5547 46.6995 19.552 43.7555 19.552C40.7688 19.552 38.5502 20.5547 37.0995 22.56C35.6488 24.544 34.9235 27.3707 34.9235 31.04C34.9235 34.7093 35.6488 37.536 37.0995 39.52C38.5502 41.4827 40.7688 42.464 43.7555 42.464ZM72.638 19.04C73.342 18.3147 74.0673 17.664 74.814 17.088C75.582 16.4907 76.3927 15.9787 77.246 15.552C78.0993 15.1253 79.006 14.7947 79.966 14.56C80.926 14.3253 81.9713 14.208 83.102 14.208C84.894 14.208 86.462 14.5067 87.806 15.104C89.1713 15.7013 90.3127 16.544 91.23 17.632C92.1687 18.72 92.8727 20.032 93.342 21.568C93.8113 23.0827 94.046 24.7573 94.046 26.592V47.36H87.198V26.592C87.198 24.3947 86.686 22.688 85.662 21.472C84.6593 20.256 83.1233 19.648 81.054 19.648C79.518 19.648 78.0887 20 76.766 20.704C75.4647 21.408 74.238 22.368 73.086 23.584V47.36H66.206V14.72H70.366C71.3047 14.72 71.902 15.1573 72.158 16.032L72.638 19.04ZM119.521 33.088C117.068 33.1733 114.998 33.376 113.313 33.696C111.628 33.9947 110.262 34.3893 109.217 34.88C108.172 35.3493 107.414 35.9147 106.945 36.576C106.497 37.2373 106.273 37.9627 106.273 38.752C106.273 39.52 106.39 40.1813 106.625 40.736C106.881 41.2693 107.222 41.7173 107.649 42.08C108.097 42.4213 108.609 42.6773 109.185 42.848C109.782 42.9973 110.433 43.072 111.137 43.072C112.929 43.072 114.465 42.7413 115.745 42.08C117.046 41.3973 118.305 40.416 119.521 39.136V33.088ZM101.281 19.264C104.972 15.8293 109.366 14.112 114.465 14.112C116.342 14.112 118.006 14.4213 119.457 15.04C120.929 15.6373 122.156 16.4907 123.137 17.6C124.14 18.7093 124.897 20.032 125.409 21.568C125.942 23.0827 126.209 24.768 126.209 26.624V47.36H123.137C122.476 47.36 121.974 47.264 121.633 47.072C121.292 46.8587 121.004 46.4427 120.769 45.824L120.097 43.168C119.265 43.9147 118.444 44.5867 117.633 45.184C116.822 45.76 115.98 46.2507 115.105 46.656C114.252 47.0613 113.324 47.36 112.321 47.552C111.34 47.7653 110.252 47.872 109.057 47.872C107.734 47.872 106.497 47.6907 105.345 47.328C104.214 46.9653 103.233 46.4213 102.401 45.696C101.569 44.9493 100.908 44.032 100.417 42.944C99.9477 41.856 99.713 40.576 99.713 39.104C99.713 37.8453 100.044 36.6187 100.705 35.424C101.388 34.2293 102.497 33.1627 104.033 32.224C105.59 31.264 107.628 30.4747 110.145 29.856C112.684 29.2373 115.809 28.8853 119.521 28.8V26.624C119.521 24.2773 119.02 22.528 118.017 21.376C117.014 20.224 115.542 19.648 113.601 19.648C112.278 19.648 111.169 19.8187 110.273 20.16C109.377 20.48 108.598 20.832 107.937 21.216C107.276 21.6 106.689 21.9627 106.177 22.304C105.665 22.624 105.121 22.784 104.545 22.784C104.076 22.784 103.67 22.6667 103.329 22.432C103.009 22.176 102.742 21.8667 102.529 21.504L101.281 19.264ZM144.295 47.872C141.586 47.872 139.495 47.1147 138.023 45.6C136.572 44.064 135.847 41.9093 135.847 39.136V20.128H132.263C131.879 20.128 131.548 20.0107 131.271 19.776C130.994 19.52 130.855 19.1467 130.855 18.656V15.872L136.135 15.104L137.639 5.664C137.746 5.30133 137.927 5.01333 138.183 4.8C138.439 4.56533 138.78 4.448 139.207 4.448H142.727V15.168H151.783V20.128H142.727V38.656C142.727 39.8293 143.015 40.7253 143.591 41.344C144.167 41.9627 144.935 42.272 145.895 42.272C146.428 42.272 146.887 42.208 147.271 42.08C147.655 41.9307 147.986 41.7813 148.263 41.632C148.54 41.4613 148.775 41.312 148.967 41.184C149.18 41.0347 149.383 40.96 149.575 40.96C149.959 40.96 150.268 41.1733 150.503 41.6L152.551 44.96C151.484 45.8987 150.226 46.624 148.775 47.136C147.324 47.6267 145.831 47.872 144.295 47.872ZM164.086 18.592C165.43 17.2693 166.902 16.2133 168.502 15.424C170.102 14.6133 171.969 14.208 174.102 14.208C175.894 14.208 177.462 14.5067 178.806 15.104C180.171 15.7013 181.313 16.544 182.23 17.632C183.169 18.72 183.873 20.032 184.342 21.568C184.811 23.0827 185.046 24.7573 185.046 26.592V47.36H178.198V26.592C178.198 24.3947 177.686 22.688 176.662 21.472C175.659 20.256 174.123 19.648 172.054 19.648C170.518 19.648 169.089 20 167.766 20.704C166.465 21.408 165.238 22.368 164.086 23.584V47.36H157.206V0H164.086V18.592ZM210.521 33.088C208.068 33.1733 205.998 33.376 204.313 33.696C202.628 33.9947 201.262 34.3893 200.217 34.88C199.172 35.3493 198.414 35.9147 197.945 36.576C197.497 37.2373 197.273 37.9627 197.273 38.752C197.273 39.52 197.39 40.1813 197.625 40.736C197.881 41.2693 198.222 41.7173 198.649 42.08C199.097 42.4213 199.609 42.6773 200.185 42.848C200.782 42.9973 201.433 43.072 202.137 43.072C203.929 43.072 205.465 42.7413 206.745 42.08C208.046 41.3973 209.305 40.416 210.521 39.136V33.088ZM192.281 19.264C195.972 15.8293 200.366 14.112 205.465 14.112C207.342 14.112 209.006 14.4213 210.457 15.04C211.929 15.6373 213.156 16.4907 214.137 17.6C215.14 18.7093 215.897 20.032 216.409 21.568C216.942 23.0827 217.209 24.768 217.209 26.624V47.36H214.137C213.476 47.36 212.974 47.264 212.633 47.072C212.292 46.8587 212.004 46.4427 211.769 45.824L211.097 43.168C210.265 43.9147 209.444 44.5867 208.633 45.184C207.822 45.76 206.98 46.2507 206.105 46.656C205.252 47.0613 204.324 47.36 203.321 47.552C202.34 47.7653 201.252 47.872 200.057 47.872C198.734 47.872 197.497 47.6907 196.345 47.328C195.214 46.9653 194.233 46.4213 193.401 45.696C192.569 44.9493 191.908 44.032 191.417 42.944C190.948 41.856 190.713 40.576 190.713 39.104C190.713 37.8453 191.044 36.6187 191.705 35.424C192.388 34.2293 193.497 33.1627 195.033 32.224C196.59 31.264 198.628 30.4747 201.145 29.856C203.684 29.2373 206.809 28.8853 210.521 28.8V26.624C210.521 24.2773 210.02 22.528 209.017 21.376C208.014 20.224 206.542 19.648 204.601 19.648C203.278 19.648 202.169 19.8187 201.273 20.16C200.377 20.48 199.598 20.832 198.937 21.216C198.276 21.6 197.689 21.9627 197.177 22.304C196.665 22.624 196.121 22.784 195.545 22.784C195.076 22.784 194.67 22.6667 194.329 22.432C194.009 22.176 193.742 21.8667 193.529 21.504L192.281 19.264ZM231.701 19.04C232.405 18.3147 233.13 17.664 233.877 17.088C234.645 16.4907 235.455 15.9787 236.309 15.552C237.162 15.1253 238.069 14.7947 239.029 14.56C239.989 14.3253 241.034 14.208 242.165 14.208C243.957 14.208 245.525 14.5067 246.869 15.104C248.234 15.7013 249.375 16.544 250.293 17.632C251.231 18.72 251.935 20.032 252.405 21.568C252.874 23.0827 253.109 24.7573 253.109 26.592V47.36H246.261V26.592C246.261 24.3947 245.749 22.688 244.725 21.472C243.722 20.256 242.186 19.648 240.117 19.648C238.581 19.648 237.151 20 235.829 20.704C234.527 21.408 233.301 22.368 232.149 23.584V47.36H225.269V14.72H229.429C230.367 14.72 230.965 15.1573 231.221 16.032L231.701 19.04ZM304.985 41.088V47.36H278.361V1.28H285.849V41.088H304.985ZM13.316 83.508C13.468 83.508 13.6 83.568 13.712 83.688L14.828 84.9C14.124 85.748 13.26 86.404 12.236 86.868C11.212 87.324 9.98801 87.552 8.56401 87.552C7.30001 87.552 6.15601 87.336 5.13201 86.904C4.11601 86.464 3.24801 85.856 2.52801 85.08C1.80801 84.296 1.25201 83.364 0.860008 82.284C0.476008 81.204 0.284008 80.016 0.284008 78.72C0.284008 77.424 0.488008 76.236 0.896008 75.156C1.31201 74.068 1.89201 73.136 2.63601 72.36C3.38801 71.576 4.28401 70.968 5.32401 70.536C6.37201 70.104 7.52401 69.888 8.78001 69.888C10.028 69.888 11.128 70.092 12.08 70.5C13.04 70.9 13.872 71.436 14.576 72.108L13.652 73.416C13.588 73.504 13.512 73.58 13.424 73.644C13.336 73.708 13.216 73.74 13.064 73.74C12.904 73.74 12.72 73.668 12.512 73.524C12.312 73.372 12.052 73.208 11.732 73.032C11.42 72.848 11.024 72.684 10.544 72.54C10.072 72.388 9.48001 72.312 8.76801 72.312C7.94401 72.312 7.18801 72.456 6.50001 72.744C5.81201 73.032 5.22001 73.452 4.72401 74.004C4.22801 74.556 3.84001 75.228 3.56001 76.02C3.28801 76.812 3.15201 77.712 3.15201 78.72C3.15201 79.736 3.29601 80.644 3.58401 81.444C3.87201 82.236 4.26801 82.908 4.77201 83.46C5.27601 84.004 5.86801 84.42 6.54801 84.708C7.22801 84.996 7.96001 85.14 8.74401 85.14C9.22401 85.14 9.65201 85.116 10.028 85.068C10.412 85.012 10.764 84.928 11.084 84.816C11.404 84.696 11.704 84.548 11.984 84.372C12.272 84.196 12.556 83.98 12.836 83.724C12.996 83.58 13.156 83.508 13.316 83.508ZM26.2895 73.032C26.2015 73.176 26.1095 73.284 26.0135 73.356C25.9175 73.42 25.7975 73.452 25.6535 73.452C25.5015 73.452 25.3295 73.388 25.1375 73.26C24.9535 73.132 24.7215 72.992 24.4415 72.84C24.1695 72.68 23.8455 72.536 23.4695 72.408C23.0935 72.272 22.6455 72.204 22.1255 72.204C21.6455 72.204 21.2215 72.264 20.8535 72.384C20.4935 72.504 20.1895 72.672 19.9415 72.888C19.6935 73.104 19.5055 73.36 19.3775 73.656C19.2575 73.944 19.1975 74.26 19.1975 74.604C19.1975 75.044 19.3135 75.412 19.5455 75.708C19.7775 75.996 20.0815 76.244 20.4575 76.452C20.8415 76.66 21.2775 76.844 21.7655 77.004C22.2535 77.156 22.7495 77.32 23.2535 77.496C23.7655 77.672 24.2655 77.872 24.7535 78.096C25.2415 78.32 25.6735 78.604 26.0495 78.948C26.4335 79.292 26.7415 79.712 26.9735 80.208C27.2055 80.704 27.3215 81.308 27.3215 82.02C27.3215 82.788 27.1895 83.508 26.9255 84.18C26.6615 84.852 26.2775 85.44 25.7735 85.944C25.2775 86.44 24.6615 86.832 23.9255 87.12C23.1975 87.408 22.3655 87.552 21.4295 87.552C20.8775 87.552 20.3375 87.496 19.8095 87.384C19.2895 87.28 18.7895 87.132 18.3095 86.94C17.8375 86.74 17.3935 86.5 16.9775 86.22C16.5615 85.94 16.1895 85.628 15.8615 85.284L16.6775 83.94C16.7495 83.828 16.8415 83.74 16.9535 83.676C17.0655 83.612 17.1895 83.58 17.3255 83.58C17.5095 83.58 17.7135 83.668 17.9375 83.844C18.1615 84.012 18.4295 84.2 18.7415 84.408C19.0615 84.608 19.4455 84.796 19.8935 84.972C20.3415 85.14 20.8775 85.224 21.5015 85.224C22.5175 85.224 23.3015 84.976 23.8535 84.48C24.4135 83.984 24.6935 83.3 24.6935 82.428C24.6935 81.94 24.5775 81.544 24.3455 81.24C24.1135 80.928 23.8055 80.668 23.4215 80.46C23.0455 80.252 22.6135 80.076 22.1255 79.932C21.6375 79.788 21.1415 79.636 20.6375 79.476C20.1335 79.308 19.6375 79.116 19.1495 78.9C18.6615 78.676 18.2255 78.388 17.8415 78.036C17.4655 77.676 17.1615 77.236 16.9295 76.716C16.6975 76.188 16.5815 75.532 16.5815 74.748C16.5815 74.124 16.7015 73.52 16.9415 72.936C17.1895 72.352 17.5455 71.836 18.0095 71.388C18.4815 70.932 19.0615 70.568 19.7495 70.296C20.4375 70.024 21.2215 69.888 22.1015 69.888C23.0935 69.888 24.0015 70.044 24.8255 70.356C25.6575 70.668 26.3735 71.112 26.9735 71.688L26.2895 73.032ZM39.3911 73.032C39.3031 73.176 39.2111 73.284 39.1151 73.356C39.0191 73.42 38.8991 73.452 38.7551 73.452C38.6031 73.452 38.4311 73.388 38.2391 73.26C38.0551 73.132 37.8231 72.992 37.5431 72.84C37.2711 72.68 36.9471 72.536 36.5711 72.408C36.1951 72.272 35.7471 72.204 35.2271 72.204C34.7471 72.204 34.3231 72.264 33.9551 72.384C33.5951 72.504 33.2911 72.672 33.0431 72.888C32.7951 73.104 32.6071 73.36 32.4791 73.656C32.3591 73.944 32.2991 74.26 32.2991 74.604C32.2991 75.044 32.4151 75.412 32.6471 75.708C32.8791 75.996 33.1831 76.244 33.5591 76.452C33.9431 76.66 34.3791 76.844 34.8671 77.004C35.3551 77.156 35.8511 77.32 36.3551 77.496C36.8671 77.672 37.3671 77.872 37.8551 78.096C38.3431 78.32 38.7751 78.604 39.1511 78.948C39.5351 79.292 39.8431 79.712 40.0751 80.208C40.3071 80.704 40.4231 81.308 40.4231 82.02C40.4231 82.788 40.2911 83.508 40.0271 84.18C39.7631 84.852 39.3791 85.44 38.8751 85.944C38.3791 86.44 37.7631 86.832 37.0271 87.12C36.2991 87.408 35.4671 87.552 34.5311 87.552C33.9791 87.552 33.4391 87.496 32.9111 87.384C32.3911 87.28 31.8911 87.132 31.4111 86.94C30.9391 86.74 30.4951 86.5 30.0791 86.22C29.6631 85.94 29.2911 85.628 28.9631 85.284L29.7791 83.94C29.8511 83.828 29.9431 83.74 30.0551 83.676C30.1671 83.612 30.2911 83.58 30.4271 83.58C30.6111 83.58 30.8151 83.668 31.0391 83.844C31.2631 84.012 31.5311 84.2 31.8431 84.408C32.1631 84.608 32.5471 84.796 32.9951 84.972C33.4431 85.14 33.9791 85.224 34.6031 85.224C35.6191 85.224 36.4031 84.976 36.9551 84.48C37.5151 83.984 37.7951 83.3 37.7951 82.428C37.7951 81.94 37.6791 81.544 37.4471 81.24C37.2151 80.928 36.9071 80.668 36.5231 80.46C36.1471 80.252 35.7151 80.076 35.2271 79.932C34.7391 79.788 34.2431 79.636 33.7391 79.476C33.2351 79.308 32.7391 79.116 32.2511 78.9C31.7631 78.676 31.3271 78.388 30.9431 78.036C30.5671 77.676 30.2631 77.236 30.0311 76.716C29.7991 76.188 29.6831 75.532 29.6831 74.748C29.6831 74.124 29.8031 73.52 30.0431 72.936C30.2911 72.352 30.6471 71.836 31.1111 71.388C31.5831 70.932 32.1631 70.568 32.8511 70.296C33.5391 70.024 34.3231 69.888 35.2031 69.888C36.1951 69.888 37.1031 70.044 37.9271 70.356C38.7591 70.668 39.4751 71.112 40.0751 71.688L39.3911 73.032ZM44.1286 87.348C43.8966 87.348 43.6846 87.308 43.4926 87.228C43.3006 87.14 43.1326 87.024 42.9886 86.88C42.8526 86.728 42.7446 86.552 42.6646 86.352C42.5926 86.152 42.5566 85.932 42.5566 85.692C42.5566 85.484 42.5926 85.288 42.6646 85.104C42.7446 84.92 42.8526 84.76 42.9886 84.624C43.1326 84.488 43.3006 84.384 43.4926 84.312C43.6926 84.232 43.9086 84.192 44.1406 84.192C44.4126 84.192 44.6526 84.244 44.8606 84.348C45.0686 84.444 45.2406 84.58 45.3766 84.756C45.5206 84.924 45.6246 85.124 45.6886 85.356C45.7606 85.58 45.7966 85.82 45.7966 86.076C45.7966 86.444 45.7406 86.832 45.6286 87.24C45.5246 87.648 45.3646 88.052 45.1486 88.452C44.9406 88.86 44.6806 89.256 44.3686 89.64C44.0646 90.024 43.7166 90.376 43.3246 90.696L42.8806 90.288C42.8166 90.224 42.7686 90.164 42.7366 90.108C42.7126 90.052 42.7006 89.98 42.7006 89.892C42.7006 89.756 42.7686 89.628 42.9046 89.508C42.9846 89.42 43.0886 89.304 43.2166 89.16C43.3446 89.016 43.4726 88.852 43.6006 88.668C43.7286 88.484 43.8446 88.28 43.9486 88.056C44.0606 87.832 44.1406 87.596 44.1886 87.348H44.1286ZM69.2684 70.08V87.36H66.4604V79.668H57.7844V87.36H54.9644V70.08H57.7844V77.64H66.4604V70.08H69.2684ZM85.2783 72.42H79.8903V87.36H77.0943V72.42H71.6943V70.08H85.2783V72.42ZM106.067 70.08V87.36H103.595V75.516C103.595 75.324 103.599 75.116 103.607 74.892C103.623 74.66 103.643 74.428 103.667 74.196L98.1112 84.456C97.8952 84.88 97.5632 85.092 97.1152 85.092H96.7192C96.2632 85.092 95.9312 84.88 95.7232 84.456L90.0832 74.172C90.1072 74.404 90.1232 74.636 90.1312 74.868C90.1472 75.1 90.1552 75.316 90.1552 75.516V87.36H87.6832V70.08H89.7832C90.0312 70.08 90.2232 70.104 90.3592 70.152C90.4952 70.192 90.6192 70.324 90.7312 70.548L96.2752 80.592C96.3952 80.824 96.5072 81.064 96.6112 81.312C96.7232 81.552 96.8232 81.8 96.9112 82.056C97.0072 81.8 97.1072 81.548 97.2112 81.3C97.3232 81.044 97.4392 80.8 97.5592 80.568L103.019 70.548C103.131 70.324 103.255 70.192 103.391 70.152C103.527 70.104 103.719 70.08 103.967 70.08H106.067ZM120.144 85.008V87.36H110.16V70.08H112.968V85.008H120.144ZM131.504 79.08C130.768 79.512 130.224 80.016 129.872 80.592C129.52 81.168 129.344 81.792 129.344 82.464C129.344 82.936 129.428 83.36 129.596 83.736C129.772 84.104 130 84.416 130.28 84.672C130.568 84.928 130.896 85.124 131.264 85.26C131.64 85.396 132.028 85.464 132.428 85.464C133.22 85.464 133.94 85.332 134.588 85.068C135.236 84.796 135.812 84.432 136.316 83.976L131.504 79.08ZM142.856 87.36H140.348C140.212 87.36 140.088 87.352 139.976 87.336C139.872 87.32 139.772 87.296 139.676 87.264C139.588 87.224 139.5 87.172 139.412 87.108C139.332 87.044 139.244 86.96 139.148 86.856L137.708 85.392C136.948 86.064 136.084 86.592 135.116 86.976C134.156 87.36 133.112 87.552 131.984 87.552C131.328 87.552 130.684 87.44 130.052 87.216C129.428 86.992 128.868 86.672 128.372 86.256C127.876 85.832 127.476 85.32 127.172 84.72C126.868 84.112 126.716 83.428 126.716 82.668C126.716 82.116 126.804 81.596 126.98 81.108C127.164 80.62 127.416 80.168 127.736 79.752C128.064 79.328 128.448 78.948 128.888 78.612C129.328 78.276 129.812 77.988 130.34 77.748C129.884 77.14 129.552 76.548 129.344 75.972C129.136 75.396 129.032 74.812 129.032 74.22C129.032 73.628 129.14 73.068 129.356 72.54C129.572 72.012 129.884 71.552 130.292 71.16C130.708 70.768 131.208 70.46 131.792 70.236C132.384 70.004 133.052 69.888 133.796 69.888C134.468 69.888 135.072 69.992 135.608 70.2C136.152 70.408 136.616 70.688 137 71.04C137.392 71.392 137.696 71.796 137.912 72.252C138.136 72.708 138.268 73.18 138.308 73.668L136.676 74.004C136.532 74.036 136.396 74.016 136.268 73.944C136.148 73.872 136.056 73.752 135.992 73.584C135.928 73.376 135.836 73.172 135.716 72.972C135.596 72.764 135.448 72.58 135.272 72.42C135.096 72.26 134.884 72.132 134.636 72.036C134.396 71.932 134.116 71.88 133.796 71.88C133.428 71.88 133.096 71.94 132.8 72.06C132.512 72.18 132.264 72.348 132.056 72.564C131.856 72.772 131.7 73.016 131.588 73.296C131.484 73.576 131.432 73.876 131.432 74.196C131.432 74.452 131.46 74.7 131.516 74.94C131.572 75.18 131.664 75.42 131.792 75.66C131.92 75.9 132.08 76.148 132.272 76.404C132.472 76.652 132.712 76.92 132.992 77.208L137.756 82.116C138.044 81.588 138.272 81.04 138.44 80.472C138.608 79.896 138.72 79.316 138.776 78.732C138.792 78.564 138.848 78.432 138.944 78.336C139.04 78.232 139.168 78.18 139.328 78.18H140.924C140.916 79.18 140.764 80.144 140.468 81.072C140.18 81.992 139.772 82.848 139.244 83.64L142.856 87.36ZM166.179 78.72C166.179 80 165.971 81.172 165.555 82.236C165.139 83.292 164.551 84.2 163.791 84.96C163.039 85.72 162.131 86.312 161.067 86.736C160.011 87.152 158.835 87.36 157.539 87.36H151.011V70.08H157.539C158.835 70.08 160.011 70.292 161.067 70.716C162.131 71.132 163.039 71.72 163.791 72.48C164.551 73.24 165.139 74.152 165.555 75.216C165.971 76.272 166.179 77.44 166.179 78.72ZM163.311 78.72C163.311 77.728 163.175 76.836 162.903 76.044C162.639 75.252 162.255 74.584 161.751 74.04C161.255 73.496 160.651 73.08 159.939 72.792C159.227 72.496 158.427 72.348 157.539 72.348H153.831V85.092H157.539C158.427 85.092 159.227 84.948 159.939 84.66C160.651 84.372 161.255 83.956 161.751 83.412C162.255 82.86 162.639 82.192 162.903 81.408C163.175 80.616 163.311 79.72 163.311 78.72ZM176.653 79.86C176.653 79.428 176.589 79.028 176.461 78.66C176.341 78.284 176.161 77.96 175.921 77.688C175.681 77.408 175.381 77.192 175.021 77.04C174.669 76.88 174.261 76.8 173.797 76.8C172.861 76.8 172.125 77.068 171.589 77.604C171.053 78.14 170.713 78.892 170.569 79.86H176.653ZM170.497 81.444C170.529 82.14 170.637 82.744 170.821 83.256C171.005 83.76 171.249 84.18 171.553 84.516C171.865 84.852 172.233 85.104 172.657 85.272C173.089 85.432 173.569 85.512 174.097 85.512C174.601 85.512 175.037 85.456 175.405 85.344C175.773 85.224 176.093 85.096 176.365 84.96C176.637 84.816 176.869 84.688 177.061 84.576C177.253 84.456 177.429 84.396 177.589 84.396C177.797 84.396 177.957 84.476 178.069 84.636L178.801 85.584C178.497 85.944 178.153 86.248 177.769 86.496C177.385 86.744 176.977 86.948 176.545 87.108C176.113 87.26 175.669 87.368 175.213 87.432C174.757 87.504 174.313 87.54 173.881 87.54C173.033 87.54 172.245 87.4 171.517 87.12C170.797 86.832 170.169 86.412 169.633 85.86C169.105 85.308 168.689 84.624 168.385 83.808C168.089 82.992 167.941 82.052 167.941 80.988C167.941 80.14 168.073 79.348 168.337 78.612C168.609 77.876 168.993 77.236 169.489 76.692C169.993 76.148 170.601 75.72 171.313 75.408C172.033 75.088 172.845 74.928 173.749 74.928C174.501 74.928 175.197 75.052 175.837 75.3C176.477 75.54 177.029 75.896 177.493 76.368C177.957 76.84 178.317 77.42 178.573 78.108C178.837 78.788 178.969 79.564 178.969 80.436C178.969 80.836 178.925 81.104 178.837 81.24C178.749 81.376 178.589 81.444 178.357 81.444H170.497ZM188.683 77.34C188.619 77.452 188.547 77.532 188.467 77.58C188.387 77.628 188.287 77.652 188.167 77.652C188.031 77.652 187.883 77.612 187.723 77.532C187.563 77.444 187.375 77.348 187.159 77.244C186.943 77.14 186.687 77.048 186.391 76.968C186.103 76.88 185.763 76.836 185.371 76.836C185.051 76.836 184.759 76.876 184.495 76.956C184.239 77.028 184.019 77.136 183.835 77.28C183.659 77.416 183.523 77.58 183.427 77.772C183.331 77.956 183.283 78.156 183.283 78.372C183.283 78.66 183.371 78.9 183.547 79.092C183.723 79.284 183.955 79.452 184.243 79.596C184.531 79.732 184.859 79.856 185.227 79.968C185.595 80.08 185.971 80.2 186.355 80.328C186.739 80.456 187.115 80.604 187.483 80.772C187.851 80.94 188.179 81.148 188.467 81.396C188.755 81.636 188.987 81.932 189.163 82.284C189.339 82.628 189.427 83.048 189.427 83.544C189.427 84.12 189.323 84.652 189.115 85.14C188.907 85.628 188.603 86.052 188.203 86.412C187.803 86.772 187.303 87.052 186.703 87.252C186.111 87.452 185.431 87.552 184.663 87.552C184.239 87.552 183.827 87.512 183.427 87.432C183.035 87.36 182.659 87.26 182.299 87.132C181.947 86.996 181.615 86.836 181.303 86.652C180.999 86.468 180.727 86.268 180.487 86.052L181.087 85.068C181.159 84.948 181.247 84.856 181.351 84.792C181.463 84.72 181.599 84.684 181.759 84.684C181.927 84.684 182.091 84.74 182.251 84.852C182.419 84.956 182.611 85.072 182.827 85.2C183.051 85.328 183.319 85.448 183.631 85.56C183.943 85.664 184.331 85.716 184.795 85.716C185.179 85.716 185.511 85.672 185.791 85.584C186.071 85.488 186.303 85.36 186.487 85.2C186.671 85.04 186.807 84.86 186.895 84.66C186.983 84.452 187.027 84.232 187.027 84C187.027 83.688 186.939 83.432 186.763 83.232C186.587 83.032 186.351 82.86 186.055 82.716C185.767 82.572 185.435 82.444 185.059 82.332C184.691 82.22 184.315 82.1 183.931 81.972C183.547 81.844 183.167 81.696 182.791 81.528C182.423 81.36 182.091 81.148 181.795 80.892C181.507 80.628 181.275 80.312 181.099 79.944C180.923 79.568 180.835 79.112 180.835 78.576C180.835 78.088 180.931 77.624 181.123 77.184C181.323 76.744 181.611 76.356 181.987 76.02C182.371 75.684 182.839 75.42 183.391 75.228C183.951 75.028 184.595 74.928 185.323 74.928C186.147 74.928 186.895 75.06 187.567 75.324C188.239 75.588 188.803 75.948 189.259 76.404L188.683 77.34ZM194.54 75.12V87.36H191.96V75.12H194.54ZM194.972 71.424C194.972 71.656 194.924 71.876 194.828 72.084C194.74 72.292 194.616 72.476 194.456 72.636C194.296 72.788 194.108 72.912 193.892 73.008C193.684 73.096 193.46 73.14 193.22 73.14C192.988 73.14 192.768 73.096 192.56 73.008C192.36 72.912 192.184 72.788 192.032 72.636C191.88 72.476 191.756 72.292 191.66 72.084C191.572 71.876 191.528 71.656 191.528 71.424C191.528 71.184 191.572 70.96 191.66 70.752C191.756 70.544 191.88 70.364 192.032 70.212C192.184 70.052 192.36 69.928 192.56 69.84C192.768 69.744 192.988 69.696 193.22 69.696C193.46 69.696 193.684 69.744 193.892 69.84C194.108 69.928 194.296 70.052 194.456 70.212C194.616 70.364 194.74 70.544 194.828 70.752C194.924 70.96 194.972 71.184 194.972 71.424ZM202.149 81.132C202.949 81.132 203.549 80.928 203.949 80.52C204.349 80.112 204.549 79.58 204.549 78.924C204.549 78.252 204.349 77.72 203.949 77.328C203.549 76.936 202.949 76.74 202.149 76.74C201.357 76.74 200.757 76.936 200.349 77.328C199.949 77.72 199.749 78.252 199.749 78.924C199.749 79.244 199.801 79.54 199.905 79.812C200.009 80.084 200.161 80.32 200.361 80.52C200.561 80.712 200.809 80.864 201.105 80.976C201.409 81.08 201.757 81.132 202.149 81.132ZM205.737 87.96C205.737 87.688 205.657 87.472 205.497 87.312C205.345 87.144 205.137 87.016 204.873 86.928C204.609 86.832 204.301 86.764 203.949 86.724C203.597 86.676 203.221 86.644 202.821 86.628C202.429 86.604 202.025 86.584 201.609 86.568C201.201 86.544 200.805 86.504 200.421 86.448C200.037 86.648 199.721 86.888 199.473 87.168C199.233 87.448 199.113 87.772 199.113 88.14C199.113 88.38 199.173 88.604 199.293 88.812C199.421 89.02 199.613 89.2 199.869 89.352C200.133 89.504 200.465 89.624 200.865 89.712C201.273 89.8 201.761 89.844 202.329 89.844C203.465 89.844 204.317 89.668 204.885 89.316C205.453 88.964 205.737 88.512 205.737 87.96ZM208.329 75.564V76.524C208.329 76.844 208.137 77.04 207.753 77.112L206.529 77.316C206.737 77.78 206.841 78.296 206.841 78.864C206.841 79.464 206.721 80.008 206.481 80.496C206.249 80.984 205.925 81.4 205.509 81.744C205.093 82.088 204.597 82.352 204.021 82.536C203.445 82.72 202.821 82.812 202.149 82.812C201.893 82.812 201.641 82.8 201.393 82.776C201.153 82.744 200.917 82.704 200.685 82.656C200.453 82.792 200.281 82.936 200.169 83.088C200.057 83.24 200.001 83.396 200.001 83.556C200.001 83.82 200.117 84.016 200.349 84.144C200.581 84.272 200.885 84.364 201.261 84.42C201.645 84.476 202.081 84.512 202.569 84.528C203.057 84.544 203.553 84.572 204.057 84.612C204.561 84.652 205.057 84.72 205.545 84.816C206.033 84.904 206.465 85.056 206.841 85.272C207.225 85.48 207.533 85.764 207.765 86.124C207.997 86.484 208.113 86.952 208.113 87.528C208.113 88.056 207.981 88.572 207.717 89.076C207.453 89.58 207.069 90.028 206.565 90.42C206.069 90.812 205.461 91.124 204.741 91.356C204.021 91.596 203.201 91.716 202.281 91.716C201.369 91.716 200.573 91.628 199.893 91.452C199.221 91.276 198.657 91.036 198.201 90.732C197.753 90.436 197.417 90.092 197.193 89.7C196.977 89.308 196.869 88.9 196.869 88.476C196.869 87.9 197.049 87.408 197.409 87C197.777 86.592 198.273 86.272 198.897 86.04C198.561 85.88 198.289 85.66 198.081 85.38C197.881 85.1 197.781 84.732 197.781 84.276C197.781 83.916 197.913 83.54 198.177 83.148C198.441 82.756 198.837 82.424 199.365 82.152C198.757 81.816 198.277 81.372 197.925 80.82C197.573 80.26 197.397 79.608 197.397 78.864C197.397 78.256 197.513 77.708 197.745 77.22C197.985 76.732 198.317 76.316 198.741 75.972C199.165 75.628 199.665 75.364 200.241 75.18C200.825 74.996 201.461 74.904 202.149 74.904C203.205 74.904 204.125 75.124 204.909 75.564H208.329ZM212.779 76.74C213.043 76.468 213.315 76.224 213.595 76.008C213.883 75.784 214.187 75.592 214.507 75.432C214.827 75.272 215.167 75.148 215.527 75.06C215.887 74.972 216.279 74.928 216.703 74.928C217.375 74.928 217.963 75.04 218.467 75.264C218.979 75.488 219.407 75.804 219.751 76.212C220.103 76.62 220.367 77.112 220.543 77.688C220.719 78.256 220.807 78.884 220.807 79.572V87.36H218.239V79.572C218.239 78.748 218.047 78.108 217.663 77.652C217.287 77.196 216.711 76.968 215.935 76.968C215.359 76.968 214.823 77.1 214.327 77.364C213.839 77.628 213.379 77.988 212.947 78.444V87.36H210.367V75.12H211.927C212.279 75.12 212.503 75.284 212.599 75.612L212.779 76.74ZM237.093 85.092C237.757 85.092 238.349 84.98 238.869 84.756C239.397 84.532 239.841 84.22 240.201 83.82C240.569 83.42 240.849 82.94 241.041 82.38C241.233 81.812 241.329 81.184 241.329 80.496V70.08H244.125V80.496C244.125 81.512 243.961 82.452 243.633 83.316C243.313 84.18 242.849 84.928 242.241 85.56C241.633 86.184 240.893 86.676 240.021 87.036C239.157 87.388 238.181 87.564 237.093 87.564C236.005 87.564 235.025 87.388 234.153 87.036C233.289 86.676 232.553 86.184 231.945 85.56C231.337 84.928 230.869 84.18 230.541 83.316C230.221 82.452 230.061 81.512 230.061 80.496V70.08H232.869V80.484C232.869 81.172 232.965 81.8 233.157 82.368C233.349 82.928 233.625 83.412 233.985 83.82C234.345 84.22 234.785 84.532 235.305 84.756C235.833 84.98 236.429 85.092 237.093 85.092ZM250.839 87.36H248.019V70.08H250.839V87.36ZM256.097 87.492C255.977 87.82 255.785 88.064 255.521 88.224C255.257 88.392 254.989 88.476 254.717 88.476H253.625L260.729 70.524C260.841 70.228 261.013 70 261.245 69.84C261.485 69.68 261.757 69.6 262.061 69.6H263.153L256.097 87.492ZM272.788 85.092C273.452 85.092 274.044 84.98 274.564 84.756C275.092 84.532 275.536 84.22 275.896 83.82C276.264 83.42 276.544 82.94 276.736 82.38C276.928 81.812 277.024 81.184 277.024 80.496V70.08H279.82V80.496C279.82 81.512 279.656 82.452 279.328 83.316C279.008 84.18 278.544 84.928 277.936 85.56C277.328 86.184 276.588 86.676 275.716 87.036C274.852 87.388 273.876 87.564 272.788 87.564C271.7 87.564 270.72 87.388 269.848 87.036C268.984 86.676 268.248 86.184 267.64 85.56C267.032 84.928 266.564 84.18 266.236 83.316C265.916 82.452 265.756 81.512 265.756 80.496V70.08H268.564V80.484C268.564 81.172 268.66 81.8 268.852 82.368C269.044 82.928 269.32 83.412 269.68 83.82C270.04 84.22 270.48 84.532 271 84.756C271.528 84.98 272.124 85.092 272.788 85.092ZM297.358 87.36H294.562C294.37 87.36 294.214 87.308 294.094 87.204C293.974 87.1 293.878 86.984 293.806 86.856L289.51 79.932C289.478 80.028 289.442 80.12 289.402 80.208C289.37 80.296 289.33 80.38 289.282 80.46L285.13 86.856C285.042 86.984 284.942 87.1 284.83 87.204C284.726 87.308 284.586 87.36 284.41 87.36H281.794L287.626 78.48L282.034 70.08H284.818C285.018 70.08 285.162 70.112 285.25 70.176C285.346 70.232 285.43 70.32 285.502 70.44L289.702 77.04C289.742 76.944 289.782 76.848 289.822 76.752C289.862 76.656 289.914 76.556 289.978 76.452L293.89 70.488C293.97 70.352 294.058 70.252 294.154 70.188C294.25 70.116 294.366 70.08 294.502 70.08H297.178L291.538 78.36L297.358 87.36Z" fill="#2C2A30"/>
</svg>
