<svg width="417" height="87" viewBox="0 0 417 87" fill="none" xmlns="http://www.w3.org/2000/svg">
<path d="M19.04 1.52001V20.64C19.04 23.6 18.2 25.88 16.52 27.48C14.8666 29.08 12.6266 29.88 9.79996 29.88C6.83996 29.88 4.46663 29.04 2.67996 27.36C0.893294 25.68 -3.9041e-05 23.2933 -3.9041e-05 20.2H6.79996C6.79996 21.3733 7.03996 22.2667 7.51996 22.88C7.99996 23.4667 8.69329 23.76 9.59996 23.76C10.4266 23.76 11.0666 23.4933 11.52 22.96C11.9733 22.4267 12.2 21.6533 12.2 20.64V1.52001H19.04ZM34.725 29.92C32.5383 29.92 30.565 29.4533 28.805 28.52C27.0716 27.5867 25.6983 26.2533 24.685 24.52C23.6983 22.7867 23.205 20.76 23.205 18.44C23.205 16.1467 23.7116 14.1333 24.725 12.4C25.7383 10.64 27.125 9.29334 28.885 8.36001C30.645 7.42667 32.6183 6.96 34.805 6.96C36.9916 6.96 38.965 7.42667 40.725 8.36001C42.485 9.29334 43.8716 10.64 44.885 12.4C45.8983 14.1333 46.405 16.1467 46.405 18.44C46.405 20.7333 45.885 22.76 44.845 24.52C43.8316 26.2533 42.4316 27.5867 40.645 28.52C38.885 29.4533 36.9116 29.92 34.725 29.92ZM34.725 24C36.0316 24 37.1383 23.52 38.045 22.56C38.9783 21.6 39.445 20.2267 39.445 18.44C39.445 16.6533 38.9916 15.28 38.085 14.32C37.205 13.36 36.1116 12.88 34.805 12.88C33.4716 12.88 32.365 13.36 31.485 14.32C30.605 15.2533 30.165 16.6267 30.165 18.44C30.165 20.2267 30.5916 21.6 31.445 22.56C32.325 23.52 33.4183 24 34.725 24ZM63.6337 7.04001C66.247 7.04001 68.327 7.89334 69.8737 9.60001C71.447 11.28 72.2337 13.6 72.2337 16.56V29.6H65.4337V17.48C65.4337 15.9867 65.047 14.8267 64.2737 14C63.5004 13.1733 62.4604 12.76 61.1537 12.76C59.847 12.76 58.807 13.1733 58.0337 14C57.2604 14.8267 56.8737 15.9867 56.8737 17.48V29.6H50.0337V7.28H56.8737V10.24C57.567 9.25334 58.5004 8.48 59.6737 7.92C60.847 7.33334 62.167 7.04001 63.6337 7.04001ZM75.6268 18.4C75.6268 16.1067 76.0535 14.0933 76.9068 12.36C77.7868 10.6267 78.9735 9.29334 80.4668 8.36001C81.9602 7.42667 83.6268 6.96 85.4668 6.96C87.0402 6.96 88.4135 7.28 89.5868 7.92C90.7868 8.56001 91.7068 9.40001 92.3468 10.44V7.28H99.1868V29.6H92.3468V26.44C91.6802 27.48 90.7468 28.32 89.5468 28.96C88.3735 29.6 87.0002 29.92 85.4268 29.92C83.6135 29.92 81.9602 29.4533 80.4668 28.52C78.9735 27.56 77.7868 26.2133 76.9068 24.48C76.0535 22.72 75.6268 20.6933 75.6268 18.4ZM92.3468 18.44C92.3468 16.7333 91.8668 15.3867 90.9068 14.4C89.9735 13.4133 88.8268 12.92 87.4668 12.92C86.1068 12.92 84.9468 13.4133 83.9868 14.4C83.0535 15.36 82.5868 16.6933 82.5868 18.4C82.5868 20.1067 83.0535 21.4667 83.9868 22.48C84.9468 23.4667 86.1068 23.96 87.4668 23.96C88.8268 23.96 89.9735 23.4667 90.9068 22.48C91.8668 21.4933 92.3468 20.1467 92.3468 18.44ZM116.575 23.8V29.6H113.095C110.615 29.6 108.682 29 107.295 27.8C105.909 26.5733 105.215 24.5867 105.215 21.84V12.96H102.495V7.28H105.215V1.84001H112.055V7.28H116.535V12.96H112.055V21.92C112.055 22.5867 112.215 23.0667 112.535 23.36C112.855 23.6533 113.389 23.8 114.135 23.8H116.575ZM134.105 7.04001C136.665 7.04001 138.719 7.89334 140.265 9.60001C141.812 11.28 142.585 13.6 142.585 16.56V29.6H135.785V17.48C135.785 15.9867 135.399 14.8267 134.625 14C133.852 13.1733 132.812 12.76 131.505 12.76C130.199 12.76 129.159 13.1733 128.385 14C127.612 14.8267 127.225 15.9867 127.225 17.48V29.6H120.385V5.72205e-06H127.225V10.28C127.919 9.29334 128.865 8.50667 130.065 7.92C131.265 7.33334 132.612 7.04001 134.105 7.04001ZM145.978 18.4C145.978 16.1067 146.405 14.0933 147.258 12.36C148.138 10.6267 149.325 9.29334 150.818 8.36001C152.312 7.42667 153.978 6.96 155.818 6.96C157.392 6.96 158.765 7.28 159.938 7.92C161.138 8.56001 162.058 9.40001 162.698 10.44V7.28H169.538V29.6H162.698V26.44C162.032 27.48 161.098 28.32 159.898 28.96C158.725 29.6 157.352 29.92 155.778 29.92C153.965 29.92 152.312 29.4533 150.818 28.52C149.325 27.56 148.138 26.2133 147.258 24.48C146.405 22.72 145.978 20.6933 145.978 18.4ZM162.698 18.44C162.698 16.7333 162.218 15.3867 161.258 14.4C160.325 13.4133 159.178 12.92 157.818 12.92C156.458 12.92 155.298 13.4133 154.338 14.4C153.405 15.36 152.938 16.6933 152.938 18.4C152.938 20.1067 153.405 21.4667 154.338 22.48C155.298 23.4667 156.458 23.96 157.818 23.96C159.178 23.96 160.325 23.4667 161.258 22.48C162.218 21.4933 162.698 20.1467 162.698 18.44ZM188.087 7.04001C190.7 7.04001 192.78 7.89334 194.327 9.60001C195.9 11.28 196.687 13.6 196.687 16.56V29.6H189.887V17.48C189.887 15.9867 189.5 14.8267 188.727 14C187.954 13.1733 186.914 12.76 185.607 12.76C184.3 12.76 183.26 13.1733 182.487 14C181.714 14.8267 181.327 15.9867 181.327 17.48V29.6H174.487V7.28H181.327V10.24C182.02 9.25334 182.954 8.48 184.127 7.92C185.3 7.33334 186.62 7.04001 188.087 7.04001ZM216.757 24.32H225.717V29.6H209.917V1.52001H216.757V24.32ZM0.0159609 66.336C0.0159609 64.1173 0.495961 62.144 1.45596 60.416C2.41596 58.6667 3.74929 57.312 5.45596 56.352C7.18396 55.3707 9.13596 54.88 11.312 54.88C13.9786 54.88 16.2613 55.584 18.16 56.992C20.0586 58.4 21.328 60.32 21.968 62.752H15.952C15.504 61.8133 14.864 61.0987 14.032 60.608C13.2213 60.1173 12.2933 59.872 11.248 59.872C9.56263 59.872 8.19729 60.4587 7.15196 61.632C6.10663 62.8053 5.58396 64.3733 5.58396 66.336C5.58396 68.2987 6.10663 69.8667 7.15196 71.04C8.19729 72.2133 9.56263 72.8 11.248 72.8C12.2933 72.8 13.2213 72.5547 14.032 72.064C14.864 71.5733 15.504 70.8587 15.952 69.92H21.968C21.328 72.352 20.0586 74.272 18.16 75.68C16.2613 77.0667 13.9786 77.76 11.312 77.76C9.13596 77.76 7.18396 77.28 5.45596 76.32C3.74929 75.3387 2.41596 73.984 1.45596 72.256C0.495961 70.528 0.0159609 68.5547 0.0159609 66.336ZM33.447 77.824C31.8043 77.824 30.3323 77.5573 29.031 77.024C27.7296 76.4907 26.6843 75.7013 25.895 74.656C25.127 73.6107 24.7216 72.352 24.679 70.88H30.503C30.5883 71.712 30.8763 72.352 31.367 72.8C31.8576 73.2267 32.4976 73.44 33.287 73.44C34.0976 73.44 34.7376 73.2587 35.207 72.896C35.6763 72.512 35.911 71.9893 35.911 71.328C35.911 70.7733 35.719 70.3147 35.335 69.952C34.9723 69.5893 34.5136 69.2907 33.959 69.056C33.4256 68.8213 32.6576 68.5547 31.655 68.256C30.2043 67.808 29.0203 67.36 28.103 66.912C27.1856 66.464 26.3963 65.8027 25.735 64.928C25.0736 64.0533 24.743 62.912 24.743 61.504C24.743 59.4133 25.5003 57.7813 27.015 56.608C28.5296 55.4133 30.503 54.816 32.935 54.816C35.4096 54.816 37.4043 55.4133 38.919 56.608C40.4336 57.7813 41.2443 59.424 41.351 61.536H35.431C35.3883 60.8107 35.1216 60.2453 34.631 59.84C34.1403 59.4133 33.511 59.2 32.743 59.2C32.0816 59.2 31.5483 59.3813 31.143 59.744C30.7376 60.0853 30.535 60.5867 30.535 61.248C30.535 61.9733 30.8763 62.5387 31.559 62.944C32.2416 63.3493 33.3083 63.7867 34.759 64.256C36.2096 64.7467 37.383 65.216 38.279 65.664C39.1963 66.112 39.9856 66.7627 40.647 67.616C41.3083 68.4693 41.639 69.568 41.639 70.912C41.639 72.192 41.3083 73.3547 40.647 74.4C40.007 75.4453 39.0683 76.2773 37.831 76.896C36.5936 77.5147 35.1323 77.824 33.447 77.824ZM53.1345 77.824C51.4918 77.824 50.0198 77.5573 48.7185 77.024C47.4171 76.4907 46.3718 75.7013 45.5825 74.656C44.8145 73.6107 44.4091 72.352 44.3665 70.88H50.1905C50.2758 71.712 50.5638 72.352 51.0545 72.8C51.5451 73.2267 52.1851 73.44 52.9745 73.44C53.7851 73.44 54.4251 73.2587 54.8945 72.896C55.3638 72.512 55.5985 71.9893 55.5985 71.328C55.5985 70.7733 55.4065 70.3147 55.0225 69.952C54.6598 69.5893 54.2011 69.2907 53.6465 69.056C53.1131 68.8213 52.3451 68.5547 51.3425 68.256C49.8918 67.808 48.7078 67.36 47.7905 66.912C46.8731 66.464 46.0838 65.8027 45.4225 64.928C44.7611 64.0533 44.4305 62.912 44.4305 61.504C44.4305 59.4133 45.1878 57.7813 46.7025 56.608C48.2171 55.4133 50.1905 54.816 52.6225 54.816C55.0971 54.816 57.0918 55.4133 58.6065 56.608C60.1211 57.7813 60.9318 59.424 61.0385 61.536H55.1185C55.0758 60.8107 54.8091 60.2453 54.3185 59.84C53.8278 59.4133 53.1985 59.2 52.4305 59.2C51.7691 59.2 51.2358 59.3813 50.8305 59.744C50.4251 60.0853 50.2225 60.5867 50.2225 61.248C50.2225 61.9733 50.5638 62.5387 51.2465 62.944C51.9291 63.3493 52.9958 63.7867 54.4465 64.256C55.8971 64.7467 57.0705 65.216 57.9665 65.664C58.8838 66.112 59.6731 66.7627 60.3345 67.616C60.9958 68.4693 61.3265 69.568 61.3265 70.912C61.3265 72.192 60.9958 73.3547 60.3345 74.4C59.6945 75.4453 58.7558 76.2773 57.5185 76.896C56.2811 77.5147 54.8198 77.824 53.1345 77.824ZM70.582 72.544L67.03 81.728H63.542L65.398 72.544H70.582ZM100.119 55.136V77.6H94.6467V68.352H86.1347V77.6H80.6627V55.136H86.1347V63.936H94.6467V55.136H100.119ZM120.229 55.136V59.52H114.277V77.6H108.805V59.52H102.853V55.136H120.229ZM148.415 55.136V77.6H142.943V64.128L137.919 77.6H133.503L128.447 64.096V77.6H122.975V55.136H129.439L135.743 70.688L141.983 55.136H148.415ZM157.822 73.376H164.99V77.6H152.35V55.136H157.822V73.376ZM191.565 77.6L189.485 75.584C187.416 77.1627 184.941 77.952 182.061 77.952C180.333 77.952 178.829 77.6747 177.549 77.12C176.269 76.544 175.277 75.744 174.573 74.72C173.891 73.6747 173.549 72.4587 173.549 71.072C173.549 69.664 173.923 68.3947 174.669 67.264C175.437 66.112 176.579 65.1733 178.093 64.448C177.539 63.7653 177.144 63.1147 176.909 62.496C176.675 61.856 176.557 61.1627 176.557 60.416C176.557 59.3493 176.835 58.3787 177.389 57.504C177.944 56.6293 178.744 55.9467 179.789 55.456C180.856 54.944 182.115 54.688 183.565 54.688C185.037 54.688 186.285 54.9547 187.309 55.488C188.333 56.0213 189.101 56.736 189.613 57.632C190.125 58.528 190.36 59.5093 190.317 60.576H185.165C185.187 60 185.037 59.5627 184.717 59.264C184.419 58.944 184.013 58.784 183.501 58.784C182.989 58.784 182.563 58.9333 182.221 59.232C181.88 59.5307 181.709 59.9147 181.709 60.384C181.709 60.832 181.848 61.3013 182.125 61.792C182.424 62.2827 182.883 62.848 183.501 63.488L188.973 68.832C189.016 68.7253 189.069 68.5973 189.133 68.448C189.219 68.2987 189.304 68.128 189.389 67.936L190.573 65.92H196.045L194.509 68.704C193.933 69.9627 193.272 71.1573 192.525 72.288L197.933 77.6H191.565ZM182.317 73.536C183.747 73.536 185.016 73.1307 186.125 72.32L181.133 67.488C179.597 68.2773 178.829 69.344 178.829 70.688C178.829 71.4987 179.139 72.1813 179.757 72.736C180.397 73.2693 181.251 73.536 182.317 73.536ZM215.11 55.136C217.478 55.136 219.547 55.6053 221.318 56.544C223.089 57.4827 224.454 58.8053 225.414 60.512C226.395 62.1973 226.886 64.1493 226.886 66.368C226.886 68.5653 226.395 70.5173 225.414 72.224C224.454 73.9307 223.078 75.2533 221.286 76.192C219.515 77.1307 217.457 77.6 215.11 77.6H206.694V55.136H215.11ZM214.758 72.864C216.827 72.864 218.438 72.2987 219.59 71.168C220.742 70.0373 221.318 68.4373 221.318 66.368C221.318 64.2987 220.742 62.688 219.59 61.536C218.438 60.384 216.827 59.808 214.758 59.808H212.166V72.864H214.758ZM246.776 68.384C246.776 68.896 246.744 69.4293 246.68 69.984H234.296C234.381 71.0933 234.733 71.9467 235.352 72.544C235.992 73.12 236.771 73.408 237.688 73.408C239.053 73.408 240.003 72.832 240.536 71.68H246.36C246.061 72.8533 245.517 73.9093 244.728 74.848C243.96 75.7867 242.989 76.5227 241.816 77.056C240.643 77.5893 239.331 77.856 237.88 77.856C236.131 77.856 234.573 77.4827 233.208 76.736C231.843 75.9893 230.776 74.9227 230.008 73.536C229.24 72.1493 228.856 70.528 228.856 68.672C228.856 66.816 229.229 65.1947 229.976 63.808C230.744 62.4213 231.811 61.3547 233.176 60.608C234.541 59.8613 236.109 59.488 237.88 59.488C239.608 59.488 241.144 59.8507 242.488 60.576C243.832 61.3013 244.877 62.336 245.624 63.68C246.392 65.024 246.776 66.592 246.776 68.384ZM241.176 66.944C241.176 66.0053 240.856 65.2587 240.216 64.704C239.576 64.1493 238.776 63.872 237.816 63.872C236.899 63.872 236.12 64.1387 235.48 64.672C234.861 65.2053 234.477 65.9627 234.328 66.944H241.176ZM256.927 77.856C255.369 77.856 253.983 77.5893 252.767 77.056C251.551 76.5227 250.591 75.7973 249.887 74.88C249.183 73.9413 248.788 72.896 248.703 71.744H254.111C254.175 72.3627 254.463 72.864 254.975 73.248C255.487 73.632 256.116 73.824 256.863 73.824C257.545 73.824 258.068 73.696 258.431 73.44C258.815 73.1627 259.007 72.8107 259.007 72.384C259.007 71.872 258.74 71.4987 258.207 71.264C257.673 71.008 256.809 70.7307 255.615 70.432C254.335 70.1333 253.268 69.824 252.415 69.504C251.561 69.1627 250.825 68.64 250.207 67.936C249.588 67.2107 249.279 66.24 249.279 65.024C249.279 64 249.556 63.072 250.111 62.24C250.687 61.3867 251.519 60.7147 252.607 60.224C253.716 59.7333 255.028 59.488 256.543 59.488C258.783 59.488 260.543 60.0427 261.823 61.152C263.124 62.2613 263.871 63.7333 264.063 65.568H259.007C258.921 64.9493 258.644 64.4587 258.175 64.096C257.727 63.7333 257.129 63.552 256.383 63.552C255.743 63.552 255.252 63.68 254.911 63.936C254.569 64.1707 254.399 64.5013 254.399 64.928C254.399 65.44 254.665 65.824 255.199 66.08C255.753 66.336 256.607 66.592 257.759 66.848C259.081 67.1893 260.159 67.5307 260.991 67.872C261.823 68.192 262.548 68.7253 263.167 69.472C263.807 70.1973 264.137 71.1787 264.159 72.416C264.159 73.4613 263.86 74.4 263.263 75.232C262.687 76.0427 261.844 76.6827 260.735 77.152C259.647 77.6213 258.377 77.856 256.927 77.856ZM270.258 57.888C269.298 57.888 268.509 57.6107 267.89 57.056C267.293 56.48 266.994 55.776 266.994 54.944C266.994 54.0907 267.293 53.3867 267.89 52.832C268.509 52.256 269.298 51.968 270.258 51.968C271.197 51.968 271.965 52.256 272.562 52.832C273.181 53.3867 273.49 54.0907 273.49 54.944C273.49 55.776 273.181 56.48 272.562 57.056C271.965 57.6107 271.197 57.888 270.258 57.888ZM272.978 59.744V77.6H267.506V59.744H272.978ZM283.728 59.488C284.987 59.488 286.085 59.744 287.024 60.256C287.984 60.768 288.72 61.44 289.232 62.272V59.744H294.704V77.568C294.704 79.2107 294.373 80.6933 293.712 82.016C293.072 83.36 292.08 84.4267 290.736 85.216C289.413 86.0053 287.76 86.4 285.776 86.4C283.131 86.4 280.987 85.7707 279.344 84.512C277.701 83.2747 276.763 81.5893 276.528 79.456H281.936C282.107 80.1387 282.512 80.672 283.152 81.056C283.792 81.4613 284.581 81.664 285.52 81.664C286.651 81.664 287.547 81.3333 288.208 80.672C288.891 80.032 289.232 78.9973 289.232 77.568V75.04C288.699 75.872 287.963 76.5547 287.024 77.088C286.085 77.6 284.987 77.856 283.728 77.856C282.256 77.856 280.923 77.4827 279.728 76.736C278.533 75.968 277.584 74.8907 276.88 73.504C276.197 72.096 275.856 70.4747 275.856 68.64C275.856 66.8053 276.197 65.1947 276.88 63.808C277.584 62.4213 278.533 61.3547 279.728 60.608C280.923 59.8613 282.256 59.488 283.728 59.488ZM289.232 68.672C289.232 67.3067 288.848 66.2293 288.08 65.44C287.333 64.6507 286.416 64.256 285.328 64.256C284.24 64.256 283.312 64.6507 282.544 65.44C281.797 66.208 281.424 67.2747 281.424 68.64C281.424 70.0053 281.797 71.0933 282.544 71.904C283.312 72.6933 284.24 73.088 285.328 73.088C286.416 73.088 287.333 72.6933 288.08 71.904C288.848 71.1147 289.232 70.0373 289.232 68.672ZM309.543 59.552C311.633 59.552 313.297 60.2347 314.535 61.6C315.793 62.944 316.423 64.8 316.423 67.168V77.6H310.983V67.904C310.983 66.7093 310.673 65.7813 310.055 65.12C309.436 64.4587 308.604 64.128 307.559 64.128C306.513 64.128 305.681 64.4587 305.063 65.12C304.444 65.7813 304.135 66.7093 304.135 67.904V77.6H298.663V59.744H304.135V62.112C304.689 61.3227 305.436 60.704 306.375 60.256C307.313 59.7867 308.369 59.552 309.543 59.552ZM332.382 55.136V68.576C332.382 69.92 332.713 70.9547 333.374 71.68C334.036 72.4053 335.006 72.768 336.286 72.768C337.566 72.768 338.548 72.4053 339.23 71.68C339.913 70.9547 340.254 69.92 340.254 68.576V55.136H345.726V68.544C345.726 70.5493 345.3 72.2453 344.446 73.632C343.593 75.0187 342.441 76.064 340.99 76.768C339.561 77.472 337.961 77.824 336.19 77.824C334.42 77.824 332.83 77.4827 331.422 76.8C330.036 76.096 328.937 75.0507 328.126 73.664C327.316 72.256 326.91 70.5493 326.91 68.544V55.136H332.382ZM355.041 55.136V77.6H349.569V55.136H355.041ZM371.198 47.2L362.622 83.584H357.342L365.918 47.2H371.198ZM378.882 55.136V68.576C378.882 69.92 379.213 70.9547 379.874 71.68C380.536 72.4053 381.506 72.768 382.786 72.768C384.066 72.768 385.048 72.4053 385.73 71.68C386.413 70.9547 386.754 69.92 386.754 68.576V55.136H392.226V68.544C392.226 70.5493 391.8 72.2453 390.946 73.632C390.093 75.0187 388.941 76.064 387.49 76.768C386.061 77.472 384.461 77.824 382.69 77.824C380.92 77.824 379.33 77.4827 377.922 76.8C376.536 76.096 375.437 75.0507 374.626 73.664C373.816 72.256 373.41 70.5493 373.41 68.544V55.136H378.882ZM409.829 77.6L405.253 70.72L401.221 77.6H395.013L402.213 66.176L394.853 55.136H401.221L405.733 61.92L409.701 55.136H415.909L408.773 66.464L416.197 77.6H409.829Z" fill="#2C2A30"/>
</svg>
